<?xml version="1.0" encoding="UTF-8" standalone="no"?>
<!DOCTYPE svg PUBLIC "-//W3C//DTD SVG 1.1//EN"
 "http://www.w3.org/Graphics/SVG/1.1/DTD/svg11.dtd">
<!-- Generated by graphviz version 2.42.3 (20191010.1750)
 -->
<!-- Title: snakemake_dag Pages: 1 -->
<svg width="453pt" height="620pt"
 viewBox="0.00 0.00 452.50 620.00" xmlns="http://www.w3.org/2000/svg" xmlns:xlink="http://www.w3.org/1999/xlink">
<g id="graph0" class="graph" transform="scale(1 1) rotate(0) translate(4 616)">
<title>snakemake_dag</title>
<polygon fill="white" stroke="transparent" points="-4,4 -4,-616 448.5,-616 448.5,4 -4,4"/>
<!-- 0 -->
<g id="node1" class="node">
<title>0</title>
<path fill="none" stroke="#80d856" stroke-width="2" stroke-dasharray="5,2" d="M250,-36C250,-36 220,-36 220,-36 214,-36 208,-30 208,-24 208,-24 208,-12 208,-12 208,-6 214,0 220,0 220,0 250,0 250,0 256,0 262,-6 262,-12 262,-12 262,-24 262,-24 262,-30 256,-36 250,-36"/>
<text text-anchor="middle" x="235" y="-15.5" font-family="sans" font-size="10.00">all</text>
</g>
<!-- 1 -->
<g id="node2" class="node">
<title>1</title>
<path fill="none" stroke="#d8ac56" stroke-width="2" stroke-dasharray="5,2" d="M250,-108C250,-108 220,-108 220,-108 214,-108 208,-102 208,-96 208,-96 208,-84 208,-84 208,-78 214,-72 220,-72 220,-72 250,-72 250,-72 256,-72 262,-78 262,-84 262,-84 262,-96 262,-96 262,-102 256,-108 250,-108"/>
<text text-anchor="middle" x="235" y="-87.5" font-family="sans" font-size="10.00">finish</text>
</g>
<!-- 1&#45;&gt;0 -->
<g id="edge1" class="edge">
<title>1&#45;&gt;0</title>
<path fill="none" stroke="grey" stroke-width="2" d="M235,-71.7C235,-63.98 235,-54.71 235,-46.11"/>
<polygon fill="grey" stroke="grey" stroke-width="2" points="238.5,-46.1 235,-36.1 231.5,-46.1 238.5,-46.1"/>
</g>
<!-- 2 -->
<g id="node3" class="node">
<title>2</title>
<path fill="none" stroke="#59d856" stroke-width="2" stroke-dasharray="5,2" d="M254.5,-180C254.5,-180 215.5,-180 215.5,-180 209.5,-180 203.5,-174 203.5,-168 203.5,-168 203.5,-156 203.5,-156 203.5,-150 209.5,-144 215.5,-144 215.5,-144 254.5,-144 254.5,-144 260.5,-144 266.5,-150 266.5,-156 266.5,-156 266.5,-168 266.5,-168 266.5,-174 260.5,-180 254.5,-180"/>
<text text-anchor="middle" x="235" y="-159.5" font-family="sans" font-size="10.00">summary</text>
</g>
<!-- 2&#45;&gt;1 -->
<g id="edge2" class="edge">
<title>2&#45;&gt;1</title>
<path fill="none" stroke="grey" stroke-width="2" d="M235,-143.7C235,-135.98 235,-126.71 235,-118.11"/>
<polygon fill="grey" stroke="grey" stroke-width="2" points="238.5,-118.1 235,-108.1 231.5,-118.1 238.5,-118.1"/>
</g>
<!-- 3 -->
<g id="node4" class="node">
<title>3</title>
<path fill="none" stroke="#d6d856" stroke-width="2" stroke-dasharray="5,2" d="M270,-252C270,-252 200,-252 200,-252 194,-252 188,-246 188,-240 188,-240 188,-228 188,-228 188,-222 194,-216 200,-216 200,-216 270,-216 270,-216 276,-216 282,-222 282,-228 282,-228 282,-240 282,-240 282,-246 276,-252 270,-252"/>
<text text-anchor="middle" x="235" y="-231.5" font-family="sans" font-size="10.00">alignment_filter</text>
</g>
<!-- 3&#45;&gt;2 -->
<g id="edge3" class="edge">
<title>3&#45;&gt;2</title>
<path fill="none" stroke="grey" stroke-width="2" d="M235,-215.7C235,-207.98 235,-198.71 235,-190.11"/>
<polygon fill="grey" stroke="grey" stroke-width="2" points="238.5,-190.1 235,-180.1 231.5,-190.1 238.5,-190.1"/>
</g>
<!-- 4 -->
<g id="node5" class="node">
<title>4</title>
<path fill="none" stroke="#56d882" stroke-width="2" stroke-dasharray="5,2" d="M144.5,-324C144.5,-324 71.5,-324 71.5,-324 65.5,-324 59.5,-318 59.5,-312 59.5,-312 59.5,-300 59.5,-300 59.5,-294 65.5,-288 71.5,-288 71.5,-288 144.5,-288 144.5,-288 150.5,-288 156.5,-294 156.5,-300 156.5,-300 156.5,-312 156.5,-312 156.5,-318 150.5,-324 144.5,-324"/>
<text text-anchor="middle" x="108" y="-303.5" font-family="sans" font-size="10.00">probe_mer_filter</text>
</g>
<!-- 4&#45;&gt;3 -->
<g id="edge4" class="edge">
<title>4&#45;&gt;3</title>
<path fill="none" stroke="grey" stroke-width="2" d="M139.07,-287.88C155.83,-278.64 176.71,-267.13 194.7,-257.21"/>
<polygon fill="grey" stroke="grey" stroke-width="2" points="196.74,-260.08 203.81,-252.19 193.37,-253.95 196.74,-260.08"/>
</g>
<!-- 5 -->
<g id="node6" class="node">
<title>5</title>
<path fill="none" stroke="#d88556" stroke-width="2" stroke-dasharray="5,2" d="M283.5,-324C283.5,-324 186.5,-324 186.5,-324 180.5,-324 174.5,-318 174.5,-312 174.5,-312 174.5,-300 174.5,-300 174.5,-294 180.5,-288 186.5,-288 186.5,-288 283.5,-288 283.5,-288 289.5,-288 295.5,-294 295.5,-300 295.5,-300 295.5,-312 295.5,-312 295.5,-318 289.5,-324 283.5,-324"/>
<text text-anchor="middle" x="235" y="-303.5" font-family="sans" font-size="10.00">generate_bt2_indices</text>
</g>
<!-- 5&#45;&gt;3 -->
<g id="edge5" class="edge">
<title>5&#45;&gt;3</title>
<path fill="none" stroke="grey" stroke-width="2" d="M235,-287.7C235,-279.98 235,-270.71 235,-262.11"/>
<polygon fill="grey" stroke="grey" stroke-width="2" points="238.5,-262.1 235,-252.1 231.5,-262.1 238.5,-262.1"/>
</g>
<!-- 6 -->
<g id="node7" class="node">
<title>6</title>
<path fill="none" stroke="#5682d8" stroke-width="2" stroke-dasharray="5,2" d="M432.5,-324C432.5,-324 325.5,-324 325.5,-324 319.5,-324 313.5,-318 313.5,-312 313.5,-312 313.5,-300 313.5,-300 313.5,-294 319.5,-288 325.5,-288 325.5,-288 432.5,-288 432.5,-288 438.5,-288 444.5,-294 444.5,-300 444.5,-300 444.5,-312 444.5,-312 444.5,-318 438.5,-324 432.5,-324"/>
<text text-anchor="middle" x="379" y="-303.5" font-family="sans" font-size="10.00">generate_genome_bins</text>
</g>
<!-- 6&#45;&gt;3 -->
<g id="edge6" class="edge">
<title>6&#45;&gt;3</title>
<path fill="none" stroke="grey" stroke-width="2" d="M343.77,-287.88C324.42,-278.47 300.23,-266.71 279.57,-256.67"/>
<polygon fill="grey" stroke="grey" stroke-width="2" points="280.89,-253.41 270.36,-252.19 277.83,-259.71 280.89,-253.41"/>
</g>
<!-- 7 -->
<g id="node8" class="node">
<title>7</title>
<path fill="none" stroke="#afd856" stroke-width="2" stroke-dasharray="5,2" d="M131,-396C131,-396 85,-396 85,-396 79,-396 73,-390 73,-384 73,-384 73,-372 73,-372 73,-366 79,-360 85,-360 85,-360 131,-360 131,-360 137,-360 143,-366 143,-372 143,-372 143,-384 143,-384 143,-390 137,-396 131,-396"/>
<text text-anchor="middle" x="108" y="-375.5" font-family="sans" font-size="10.00">kmer_filter</text>
</g>
<!-- 7&#45;&gt;4 -->
<g id="edge7" class="edge">
<title>7&#45;&gt;4</title>
<path fill="none" stroke="grey" stroke-width="2" d="M108,-359.7C108,-351.98 108,-342.71 108,-334.11"/>
<polygon fill="grey" stroke="grey" stroke-width="2" points="111.5,-334.1 108,-324.1 104.5,-334.1 111.5,-334.1"/>
</g>
<!-- 8 -->
<g id="node9" class="node">
<title>8</title>
<path fill="none" stroke="#56a9d8" stroke-width="2" stroke-dasharray="5,2" d="M178,-540C178,-540 110,-540 110,-540 104,-540 98,-534 98,-528 98,-528 98,-516 98,-516 98,-510 104,-504 110,-504 110,-504 178,-504 178,-504 184,-504 190,-510 190,-516 190,-516 190,-528 190,-528 190,-534 184,-540 178,-540"/>
<text text-anchor="middle" x="144" y="-525" font-family="sans" font-size="10.00">generate_jf_idx</text>
<text text-anchor="middle" x="144" y="-514" font-family="sans" font-size="10.00">sample: chrX</text>
</g>
<!-- 8&#45;&gt;7 -->
<g id="edge8" class="edge">
<title>8&#45;&gt;7</title>
<path fill="none" stroke="grey" stroke-width="2" d="M140.53,-503.85C136.8,-485.86 130.52,-456.81 124,-432 121.74,-423.41 119.03,-414.11 116.48,-405.74"/>
<polygon fill="grey" stroke="grey" stroke-width="2" points="119.8,-404.62 113.5,-396.1 113.11,-406.68 119.8,-404.62"/>
</g>
<!-- 9 -->
<g id="node10" class="node">
<title>9</title>
<path fill="none" stroke="#56d8d8" stroke-width="2" stroke-dasharray="5,2" d="M103.5,-468C103.5,-468 40.5,-468 40.5,-468 34.5,-468 28.5,-462 28.5,-456 28.5,-456 28.5,-444 28.5,-444 28.5,-438 34.5,-432 40.5,-432 40.5,-432 103.5,-432 103.5,-432 109.5,-432 115.5,-438 115.5,-444 115.5,-444 115.5,-456 115.5,-456 115.5,-462 109.5,-468 103.5,-468"/>
<text text-anchor="middle" x="72" y="-447.5" font-family="sans" font-size="10.00">design_probes</text>
</g>
<!-- 8&#45;&gt;9 -->
<g id="edge12" class="edge">
<title>8&#45;&gt;9</title>
<path fill="none" stroke="grey" stroke-width="2" d="M126.2,-503.7C117.4,-495.14 106.62,-484.66 97,-475.3"/>
<polygon fill="grey" stroke="grey" stroke-width="2" points="99.2,-472.57 89.59,-468.1 94.32,-477.58 99.2,-472.57"/>
</g>
<!-- 9&#45;&gt;7 -->
<g id="edge9" class="edge">
<title>9&#45;&gt;7</title>
<path fill="none" stroke="grey" stroke-width="2" d="M80.9,-431.7C85,-423.73 89.95,-414.1 94.49,-405.26"/>
<polygon fill="grey" stroke="grey" stroke-width="2" points="97.74,-406.6 99.2,-396.1 91.52,-403.4 97.74,-406.6"/>
</g>
<!-- 10 -->
<g id="node11" class="node">
<title>10</title>
<path fill="none" stroke="#56d8a9" stroke-width="2" stroke-dasharray="5,2" d="M184,-612C184,-612 104,-612 104,-612 98,-612 92,-606 92,-600 92,-600 92,-588 92,-588 92,-582 98,-576 104,-576 104,-576 184,-576 184,-576 190,-576 196,-582 196,-588 196,-588 196,-600 196,-600 196,-606 190,-612 184,-612"/>
<text text-anchor="middle" x="144" y="-591.5" font-family="sans" font-size="10.00">generate_jf_count</text>
</g>
<!-- 10&#45;&gt;8 -->
<g id="edge10" class="edge">
<title>10&#45;&gt;8</title>
<path fill="none" stroke="grey" stroke-width="2" d="M144,-575.7C144,-567.98 144,-558.71 144,-550.11"/>
<polygon fill="grey" stroke="grey" stroke-width="2" points="147.5,-550.1 144,-540.1 140.5,-550.1 147.5,-550.1"/>
</g>
<!-- 11 -->
<g id="node12" class="node">
<title>11</title>
<path fill="none" stroke="#d85656" stroke-width="2" stroke-dasharray="5,2" d="M68,-540C68,-540 12,-540 12,-540 6,-540 0,-534 0,-528 0,-528 0,-516 0,-516 0,-510 6,-504 12,-504 12,-504 68,-504 68,-504 74,-504 80,-510 80,-516 80,-516 80,-528 80,-528 80,-534 74,-540 68,-540"/>
<text text-anchor="middle" x="40" y="-525" font-family="sans" font-size="10.00">split_bed</text>
<text text-anchor="middle" x="40" y="-514" font-family="sans" font-size="10.00">sample: chrX</text>
</g>
<!-- 11&#45;&gt;9 -->
<g id="edge11" class="edge">
<title>11&#45;&gt;9</title>
<path fill="none" stroke="grey" stroke-width="2" d="M47.91,-503.7C51.55,-495.73 55.95,-486.1 59.99,-477.26"/>
<polygon fill="grey" stroke="grey" stroke-width="2" points="63.21,-478.65 64.18,-468.1 56.84,-475.74 63.21,-478.65"/>
</g>
</g>
</svg>
