<?xml version="1.0" encoding="UTF-8" standalone="no"?>
<!DOCTYPE svg PUBLIC "-//W3C//DTD SVG 1.1//EN"
 "http://www.w3.org/Graphics/SVG/1.1/DTD/svg11.dtd">
<!-- Generated by graphviz version 2.42.3 (20191010.1750)
 -->
<!-- Title: snakemake_dag Pages: 1 -->
<svg width="304pt" height="620pt"
 viewBox="0.00 0.00 303.50 620.00" xmlns="http://www.w3.org/2000/svg" xmlns:xlink="http://www.w3.org/1999/xlink">
<g id="graph0" class="graph" transform="scale(1 1) rotate(0) translate(4 616)">
<title>snakemake_dag</title>
<polygon fill="white" stroke="transparent" points="-4,4 -4,-616 299.5,-616 299.5,4 -4,4"/>
<!-- 0 -->
<g id="node1" class="node">
<title>0</title>
<path fill="none" stroke="#56d86b" stroke-width="2" stroke-dasharray="5,2" d="M186,-36C186,-36 156,-36 156,-36 150,-36 144,-30 144,-24 144,-24 144,-12 144,-12 144,-6 150,0 156,0 156,0 186,0 186,0 192,0 198,-6 198,-12 198,-12 198,-24 198,-24 198,-30 192,-36 186,-36"/>
<text text-anchor="middle" x="171" y="-15.5" font-family="sans" font-size="10.00">all</text>
</g>
<!-- 1 -->
<g id="node2" class="node">
<title>1</title>
<path fill="none" stroke="#56b1d8" stroke-width="2" stroke-dasharray="5,2" d="M186,-108C186,-108 156,-108 156,-108 150,-108 144,-102 144,-96 144,-96 144,-84 144,-84 144,-78 150,-72 156,-72 156,-72 186,-72 186,-72 192,-72 198,-78 198,-84 198,-84 198,-96 198,-96 198,-102 192,-108 186,-108"/>
<text text-anchor="middle" x="171" y="-87.5" font-family="sans" font-size="10.00">finish</text>
</g>
<!-- 1&#45;&gt;0 -->
<g id="edge1" class="edge">
<title>1&#45;&gt;0</title>
<path fill="none" stroke="grey" stroke-width="2" d="M171,-71.7C171,-63.98 171,-54.71 171,-46.11"/>
<polygon fill="grey" stroke="grey" stroke-width="2" points="174.5,-46.1 171,-36.1 167.5,-46.1 174.5,-46.1"/>
</g>
<!-- 2 -->
<g id="node3" class="node">
<title>2</title>
<path fill="none" stroke="#d8b456" stroke-width="2" stroke-dasharray="5,2" d="M190.5,-180C190.5,-180 151.5,-180 151.5,-180 145.5,-180 139.5,-174 139.5,-168 139.5,-168 139.5,-156 139.5,-156 139.5,-150 145.5,-144 151.5,-144 151.5,-144 190.5,-144 190.5,-144 196.5,-144 202.5,-150 202.5,-156 202.5,-156 202.5,-168 202.5,-168 202.5,-174 196.5,-180 190.5,-180"/>
<text text-anchor="middle" x="171" y="-159.5" font-family="sans" font-size="10.00">summary</text>
</g>
<!-- 2&#45;&gt;1 -->
<g id="edge2" class="edge">
<title>2&#45;&gt;1</title>
<path fill="none" stroke="grey" stroke-width="2" d="M171,-143.7C171,-135.98 171,-126.71 171,-118.11"/>
<polygon fill="grey" stroke="grey" stroke-width="2" points="174.5,-118.1 171,-108.1 167.5,-118.1 174.5,-118.1"/>
</g>
<!-- 3 -->
<g id="node4" class="node">
<title>3</title>
<path fill="none" stroke="#5682d8" stroke-width="2" stroke-dasharray="5,2" d="M206,-252C206,-252 136,-252 136,-252 130,-252 124,-246 124,-240 124,-240 124,-228 124,-228 124,-222 130,-216 136,-216 136,-216 206,-216 206,-216 212,-216 218,-222 218,-228 218,-228 218,-240 218,-240 218,-246 212,-252 206,-252"/>
<text text-anchor="middle" x="171" y="-231.5" font-family="sans" font-size="10.00">alignment_filter</text>
</g>
<!-- 3&#45;&gt;2 -->
<g id="edge3" class="edge">
<title>3&#45;&gt;2</title>
<path fill="none" stroke="grey" stroke-width="2" d="M171,-215.7C171,-207.98 171,-198.71 171,-190.11"/>
<polygon fill="grey" stroke="grey" stroke-width="2" points="174.5,-190.1 171,-180.1 167.5,-190.1 174.5,-190.1"/>
</g>
<!-- 4 -->
<g id="node5" class="node">
<title>4</title>
<path fill="none" stroke="#56d89a" stroke-width="2" stroke-dasharray="5,2" d="M144.5,-324C144.5,-324 71.5,-324 71.5,-324 65.5,-324 59.5,-318 59.5,-312 59.5,-312 59.5,-300 59.5,-300 59.5,-294 65.5,-288 71.5,-288 71.5,-288 144.5,-288 144.5,-288 150.5,-288 156.5,-294 156.5,-300 156.5,-300 156.5,-312 156.5,-312 156.5,-318 150.5,-324 144.5,-324"/>
<text text-anchor="middle" x="108" y="-303.5" font-family="sans" font-size="10.00">probe_mer_filter</text>
</g>
<!-- 4&#45;&gt;3 -->
<g id="edge4" class="edge">
<title>4&#45;&gt;3</title>
<path fill="none" stroke="grey" stroke-width="2" d="M123.57,-287.7C131.2,-279.22 140.52,-268.86 148.88,-259.58"/>
<polygon fill="grey" stroke="grey" stroke-width="2" points="151.52,-261.88 155.61,-252.1 146.31,-257.2 151.52,-261.88"/>
</g>
<!-- 5 -->
<g id="node6" class="node">
<title>5</title>
<path fill="none" stroke="#56d8c9" stroke-width="2" stroke-dasharray="5,2" d="M283.5,-324C283.5,-324 186.5,-324 186.5,-324 180.5,-324 174.5,-318 174.5,-312 174.5,-312 174.5,-300 174.5,-300 174.5,-294 180.5,-288 186.5,-288 186.5,-288 283.5,-288 283.5,-288 289.5,-288 295.5,-294 295.5,-300 295.5,-300 295.5,-312 295.5,-312 295.5,-318 289.5,-324 283.5,-324"/>
<text text-anchor="middle" x="235" y="-303.5" font-family="sans" font-size="10.00">generate_bt2_indices</text>
</g>
<!-- 5&#45;&gt;3 -->
<g id="edge5" class="edge">
<title>5&#45;&gt;3</title>
<path fill="none" stroke="grey" stroke-width="2" d="M219.18,-287.7C211.43,-279.22 201.96,-268.86 193.48,-259.58"/>
<polygon fill="grey" stroke="grey" stroke-width="2" points="195.97,-257.12 186.64,-252.1 190.8,-261.85 195.97,-257.12"/>
</g>
<!-- 6 -->
<g id="node7" class="node">
<title>6</title>
<path fill="none" stroke="#d88556" stroke-width="2" stroke-dasharray="5,2" d="M131,-396C131,-396 85,-396 85,-396 79,-396 73,-390 73,-384 73,-384 73,-372 73,-372 73,-366 79,-360 85,-360 85,-360 131,-360 131,-360 137,-360 143,-366 143,-372 143,-372 143,-384 143,-384 143,-390 137,-396 131,-396"/>
<text text-anchor="middle" x="108" y="-375.5" font-family="sans" font-size="10.00">kmer_filter</text>
</g>
<!-- 6&#45;&gt;4 -->
<g id="edge6" class="edge">
<title>6&#45;&gt;4</title>
<path fill="none" stroke="grey" stroke-width="2" d="M108,-359.7C108,-351.98 108,-342.71 108,-334.11"/>
<polygon fill="grey" stroke="grey" stroke-width="2" points="111.5,-334.1 108,-324.1 104.5,-334.1 111.5,-334.1"/>
</g>
<!-- 7 -->
<g id="node8" class="node">
<title>7</title>
<path fill="none" stroke="#9fd856" stroke-width="2" stroke-dasharray="5,2" d="M178,-540C178,-540 110,-540 110,-540 104,-540 98,-534 98,-528 98,-528 98,-516 98,-516 98,-510 104,-504 110,-504 110,-504 178,-504 178,-504 184,-504 190,-510 190,-516 190,-516 190,-528 190,-528 190,-534 184,-540 178,-540"/>
<text text-anchor="middle" x="144" y="-525" font-family="sans" font-size="10.00">generate_jf_idx</text>
<text text-anchor="middle" x="144" y="-514" font-family="sans" font-size="10.00">sample: chrX</text>
</g>
<!-- 7&#45;&gt;6 -->
<g id="edge7" class="edge">
<title>7&#45;&gt;6</title>
<path fill="none" stroke="grey" stroke-width="2" d="M140.53,-503.85C136.8,-485.86 130.52,-456.81 124,-432 121.74,-423.41 119.03,-414.11 116.48,-405.74"/>
<polygon fill="grey" stroke="grey" stroke-width="2" points="119.8,-404.62 113.5,-396.1 113.11,-406.68 119.8,-404.62"/>
</g>
<!-- 8 -->
<g id="node9" class="node">
<title>8</title>
<path fill="none" stroke="#d85656" stroke-width="2" stroke-dasharray="5,2" d="M103.5,-468C103.5,-468 40.5,-468 40.5,-468 34.5,-468 28.5,-462 28.5,-456 28.5,-456 28.5,-444 28.5,-444 28.5,-438 34.5,-432 40.5,-432 40.5,-432 103.5,-432 103.5,-432 109.5,-432 115.5,-438 115.5,-444 115.5,-444 115.5,-456 115.5,-456 115.5,-462 109.5,-468 103.5,-468"/>
<text text-anchor="middle" x="72" y="-447.5" font-family="sans" font-size="10.00">design_probes</text>
</g>
<!-- 7&#45;&gt;8 -->
<g id="edge11" class="edge">
<title>7&#45;&gt;8</title>
<path fill="none" stroke="grey" stroke-width="2" d="M126.2,-503.7C117.4,-495.14 106.62,-484.66 97,-475.3"/>
<polygon fill="grey" stroke="grey" stroke-width="2" points="99.2,-472.57 89.59,-468.1 94.32,-477.58 99.2,-472.57"/>
</g>
<!-- 8&#45;&gt;6 -->
<g id="edge8" class="edge">
<title>8&#45;&gt;6</title>
<path fill="none" stroke="grey" stroke-width="2" d="M80.9,-431.7C85,-423.73 89.95,-414.1 94.49,-405.26"/>
<polygon fill="grey" stroke="grey" stroke-width="2" points="97.74,-406.6 99.2,-396.1 91.52,-403.4 97.74,-406.6"/>
</g>
<!-- 9 -->
<g id="node10" class="node">
<title>9</title>
<path fill="none" stroke="#70d856" stroke-width="2" stroke-dasharray="5,2" d="M184,-612C184,-612 104,-612 104,-612 98,-612 92,-606 92,-600 92,-600 92,-588 92,-588 92,-582 98,-576 104,-576 104,-576 184,-576 184,-576 190,-576 196,-582 196,-588 196,-588 196,-600 196,-600 196,-606 190,-612 184,-612"/>
<text text-anchor="middle" x="144" y="-591.5" font-family="sans" font-size="10.00">generate_jf_count</text>
</g>
<!-- 9&#45;&gt;7 -->
<g id="edge9" class="edge">
<title>9&#45;&gt;7</title>
<path fill="none" stroke="grey" stroke-width="2" d="M144,-575.7C144,-567.98 144,-558.71 144,-550.11"/>
<polygon fill="grey" stroke="grey" stroke-width="2" points="147.5,-550.1 144,-540.1 140.5,-550.1 147.5,-550.1"/>
</g>
<!-- 10 -->
<g id="node11" class="node">
<title>10</title>
<path fill="none" stroke="#ced856" stroke-width="2" stroke-dasharray="5,2" d="M68,-540C68,-540 12,-540 12,-540 6,-540 0,-534 0,-528 0,-528 0,-516 0,-516 0,-510 6,-504 12,-504 12,-504 68,-504 68,-504 74,-504 80,-510 80,-516 80,-516 80,-528 80,-528 80,-534 74,-540 68,-540"/>
<text text-anchor="middle" x="40" y="-525" font-family="sans" font-size="10.00">split_bed</text>
<text text-anchor="middle" x="40" y="-514" font-family="sans" font-size="10.00">sample: chrX</text>
</g>
<!-- 10&#45;&gt;8 -->
<g id="edge10" class="edge">
<title>10&#45;&gt;8</title>
<path fill="none" stroke="grey" stroke-width="2" d="M47.91,-503.7C51.55,-495.73 55.95,-486.1 59.99,-477.26"/>
<polygon fill="grey" stroke="grey" stroke-width="2" points="63.21,-478.65 64.18,-468.1 56.84,-475.74 63.21,-478.65"/>
</g>
</g>
</svg>
