<?xml version="1.0" encoding="UTF-8" standalone="no"?>
<!DOCTYPE svg PUBLIC "-//W3C//DTD SVG 1.1//EN"
 "http://www.w3.org/Graphics/SVG/1.1/DTD/svg11.dtd">
<!-- Generated by graphviz version 2.42.3 (20191010.1750)
 -->
<!-- Title: snakemake_dag Pages: 1 -->
<svg width="362pt" height="548pt"
 viewBox="0.00 0.00 362.00 548.00" xmlns="http://www.w3.org/2000/svg" xmlns:xlink="http://www.w3.org/1999/xlink">
<g id="graph0" class="graph" transform="scale(1 1) rotate(0) translate(4 544)">
<title>snakemake_dag</title>
<polygon fill="white" stroke="transparent" points="-4,4 -4,-544 358,-544 358,4 -4,4"/>
<!-- 0 -->
<g id="node1" class="node">
<title>0</title>
<path fill="none" stroke="#59d856" stroke-width="2" stroke-dasharray="5,2" d="M86,-36C86,-36 56,-36 56,-36 50,-36 44,-30 44,-24 44,-24 44,-12 44,-12 44,-6 50,0 56,0 56,0 86,0 86,0 92,0 98,-6 98,-12 98,-12 98,-24 98,-24 98,-30 92,-36 86,-36"/>
<text text-anchor="middle" x="71" y="-15.5" font-family="sans" font-size="10.00">all</text>
</g>
<!-- 1 -->
<g id="node2" class="node">
<title>1</title>
<path fill="none" stroke="#56c1d8" stroke-width="2" stroke-dasharray="5,2" d="M86,-108C86,-108 56,-108 56,-108 50,-108 44,-102 44,-96 44,-96 44,-84 44,-84 44,-78 50,-72 56,-72 56,-72 86,-72 86,-72 92,-72 98,-78 98,-84 98,-84 98,-96 98,-96 98,-102 92,-108 86,-108"/>
<text text-anchor="middle" x="71" y="-87.5" font-family="sans" font-size="10.00">finish</text>
</g>
<!-- 1&#45;&gt;0 -->
<g id="edge1" class="edge">
<title>1&#45;&gt;0</title>
<path fill="none" stroke="grey" stroke-width="2" d="M71,-71.7C71,-63.98 71,-54.71 71,-46.11"/>
<polygon fill="grey" stroke="grey" stroke-width="2" points="74.5,-46.1 71,-36.1 67.5,-46.1 74.5,-46.1"/>
</g>
<!-- 2 -->
<g id="node3" class="node">
<title>2</title>
<path fill="none" stroke="#d85656" stroke-width="2" stroke-dasharray="5,2" d="M147.5,-468C147.5,-468 92.5,-468 92.5,-468 86.5,-468 80.5,-462 80.5,-456 80.5,-456 80.5,-444 80.5,-444 80.5,-438 86.5,-432 92.5,-432 92.5,-432 147.5,-432 147.5,-432 153.5,-432 159.5,-438 159.5,-444 159.5,-444 159.5,-456 159.5,-456 159.5,-462 153.5,-468 147.5,-468"/>
<text text-anchor="middle" x="120" y="-447.5" font-family="sans" font-size="10.00">align_probes</text>
</g>
<!-- 2&#45;&gt;1 -->
<g id="edge2" class="edge">
<title>2&#45;&gt;1</title>
<path fill="none" stroke="grey" stroke-width="2" d="M90.95,-431.91C55.44,-408.58 0,-363.16 0,-307 0,-307 0,-307 0,-233 0,-188.48 28.26,-143.61 49.13,-116.56"/>
<polygon fill="grey" stroke="grey" stroke-width="2" points="52.11,-118.43 55.59,-108.42 46.63,-114.07 52.11,-118.43"/>
</g>
<!-- 4 -->
<g id="node5" class="node">
<title>4</title>
<path fill="none" stroke="#bed856" stroke-width="2" stroke-dasharray="5,2" d="M139,-252C139,-252 71,-252 71,-252 65,-252 59,-246 59,-240 59,-240 59,-228 59,-228 59,-222 65,-216 71,-216 71,-216 139,-216 139,-216 145,-216 151,-222 151,-228 151,-228 151,-240 151,-240 151,-246 145,-252 139,-252"/>
<text text-anchor="middle" x="105" y="-231.5" font-family="sans" font-size="10.00">get_alignments</text>
</g>
<!-- 2&#45;&gt;4 -->
<g id="edge9" class="edge">
<title>2&#45;&gt;4</title>
<path fill="none" stroke="grey" stroke-width="2" d="M89.7,-431.8C77.12,-422.9 63.88,-410.77 57,-396 35.73,-350.32 65.03,-292.97 86.33,-260.51"/>
<polygon fill="grey" stroke="grey" stroke-width="2" points="89.36,-262.28 92.08,-252.04 83.56,-258.35 89.36,-262.28"/>
</g>
<!-- 9 -->
<g id="node10" class="node">
<title>9</title>
<path fill="none" stroke="#56d88a" stroke-width="2" stroke-dasharray="5,2" d="M232,-396C232,-396 174,-396 174,-396 168,-396 162,-390 162,-384 162,-384 162,-372 162,-372 162,-366 168,-360 174,-360 174,-360 232,-360 232,-360 238,-360 244,-366 244,-372 244,-372 244,-384 244,-384 244,-390 238,-396 232,-396"/>
<text text-anchor="middle" x="203" y="-375.5" font-family="sans" font-size="10.00">derived_beds</text>
</g>
<!-- 2&#45;&gt;9 -->
<g id="edge15" class="edge">
<title>2&#45;&gt;9</title>
<path fill="none" stroke="grey" stroke-width="2" d="M140.52,-431.7C150.87,-422.97 163.59,-412.24 174.84,-402.75"/>
<polygon fill="grey" stroke="grey" stroke-width="2" points="177.33,-405.23 182.72,-396.1 172.82,-399.88 177.33,-405.23"/>
</g>
<!-- 3 -->
<g id="node4" class="node">
<title>3</title>
<path fill="none" stroke="#568ad8" stroke-width="2" stroke-dasharray="5,2" d="M211,-180C211,-180 111,-180 111,-180 105,-180 99,-174 99,-168 99,-168 99,-156 99,-156 99,-150 105,-144 111,-144 111,-144 211,-144 211,-144 217,-144 223,-150 223,-156 223,-156 223,-168 223,-168 223,-174 217,-180 211,-180"/>
<text text-anchor="middle" x="161" y="-159.5" font-family="sans" font-size="10.00">generate_chromomap</text>
</g>
<!-- 3&#45;&gt;1 -->
<g id="edge3" class="edge">
<title>3&#45;&gt;1</title>
<path fill="none" stroke="grey" stroke-width="2" d="M138.75,-143.7C127.42,-134.88 113.47,-124.03 101.18,-114.47"/>
<polygon fill="grey" stroke="grey" stroke-width="2" points="103.03,-111.48 92.99,-108.1 98.74,-117.01 103.03,-111.48"/>
</g>
<!-- 4&#45;&gt;1 -->
<g id="edge4" class="edge">
<title>4&#45;&gt;1</title>
<path fill="none" stroke="grey" stroke-width="2" d="M99.85,-215.89C96.81,-205.54 92.99,-192.07 90,-180 84.9,-159.43 79.93,-135.97 76.35,-118.31"/>
<polygon fill="grey" stroke="grey" stroke-width="2" points="79.71,-117.26 74.31,-108.14 72.84,-118.63 79.71,-117.26"/>
</g>
<!-- 4&#45;&gt;3 -->
<g id="edge7" class="edge">
<title>4&#45;&gt;3</title>
<path fill="none" stroke="grey" stroke-width="2" d="M118.84,-215.7C125.49,-207.39 133.58,-197.28 140.89,-188.14"/>
<polygon fill="grey" stroke="grey" stroke-width="2" points="143.8,-190.1 147.32,-180.1 138.34,-185.73 143.8,-190.1"/>
</g>
<!-- 5 -->
<g id="node6" class="node">
<title>5</title>
<path fill="none" stroke="#d88d56" stroke-width="2" stroke-dasharray="5,2" d="M205,-540C205,-540 103,-540 103,-540 97,-540 91,-534 91,-528 91,-528 91,-516 91,-516 91,-510 97,-504 103,-504 103,-504 205,-504 205,-504 211,-504 217,-510 217,-516 217,-516 217,-528 217,-528 217,-534 211,-540 205,-540"/>
<text text-anchor="middle" x="154" y="-525" font-family="sans" font-size="10.00">gather_repeat_regions</text>
<text text-anchor="middle" x="154" y="-514" font-family="sans" font-size="10.00">sample: chr9</text>
</g>
<!-- 5&#45;&gt;2 -->
<g id="edge5" class="edge">
<title>5&#45;&gt;2</title>
<path fill="none" stroke="grey" stroke-width="2" d="M145.6,-503.7C141.73,-495.73 137.05,-486.1 132.76,-477.26"/>
<polygon fill="grey" stroke="grey" stroke-width="2" points="135.83,-475.57 128.31,-468.1 129.53,-478.63 135.83,-475.57"/>
</g>
<!-- 6 -->
<g id="node7" class="node">
<title>6</title>
<path fill="none" stroke="#d8bc56" stroke-width="2" stroke-dasharray="5,2" d="M342,-396C342,-396 274,-396 274,-396 268,-396 262,-390 262,-384 262,-384 262,-372 262,-372 262,-366 268,-360 274,-360 274,-360 342,-360 342,-360 348,-360 354,-366 354,-372 354,-372 354,-384 354,-384 354,-390 348,-396 342,-396"/>
<text text-anchor="middle" x="308" y="-375.5" font-family="sans" font-size="10.00">get_region_bed</text>
</g>
<!-- 5&#45;&gt;6 -->
<g id="edge11" class="edge">
<title>5&#45;&gt;6</title>
<path fill="none" stroke="grey" stroke-width="2" d="M172.58,-503.87C199.86,-478.71 250.9,-431.65 281.93,-403.04"/>
<polygon fill="grey" stroke="grey" stroke-width="2" points="284.38,-405.54 289.36,-396.19 279.63,-400.4 284.38,-405.54"/>
</g>
<!-- 6&#45;&gt;3 -->
<g id="edge6" class="edge">
<title>6&#45;&gt;3</title>
<path fill="none" stroke="grey" stroke-width="2" d="M299.07,-359.86C289.37,-341.63 273.09,-312.16 257,-288 233.01,-251.99 202.03,-212.77 181.85,-188.05"/>
<polygon fill="grey" stroke="grey" stroke-width="2" points="184.49,-185.76 175.44,-180.25 179.08,-190.2 184.49,-185.76"/>
</g>
<!-- 7 -->
<g id="node8" class="node">
<title>7</title>
<path fill="none" stroke="#56d8c1" stroke-width="2" stroke-dasharray="5,2" d="M236.5,-324C236.5,-324 153.5,-324 153.5,-324 147.5,-324 141.5,-318 141.5,-312 141.5,-312 141.5,-300 141.5,-300 141.5,-294 147.5,-288 153.5,-288 153.5,-288 236.5,-288 236.5,-288 242.5,-288 248.5,-294 248.5,-300 248.5,-300 248.5,-312 248.5,-312 248.5,-318 242.5,-324 236.5,-324"/>
<text text-anchor="middle" x="195" y="-303.5" font-family="sans" font-size="10.00">bedtools_intersect</text>
</g>
<!-- 6&#45;&gt;7 -->
<g id="edge14" class="edge">
<title>6&#45;&gt;7</title>
<path fill="none" stroke="grey" stroke-width="2" d="M280.36,-359.88C265.58,-350.72 247.21,-339.34 231.3,-329.48"/>
<polygon fill="grey" stroke="grey" stroke-width="2" points="233.09,-326.48 222.75,-324.19 229.41,-332.43 233.09,-326.48"/>
</g>
<!-- 7&#45;&gt;4 -->
<g id="edge8" class="edge">
<title>7&#45;&gt;4</title>
<path fill="none" stroke="grey" stroke-width="2" d="M172.75,-287.7C161.42,-278.88 147.47,-268.03 135.18,-258.47"/>
<polygon fill="grey" stroke="grey" stroke-width="2" points="137.03,-255.48 126.99,-252.1 132.74,-261.01 137.03,-255.48"/>
</g>
<!-- 8 -->
<g id="node9" class="node">
<title>8</title>
<path fill="none" stroke="#88d856" stroke-width="2" stroke-dasharray="5,2" d="M131.5,-396C131.5,-396 78.5,-396 78.5,-396 72.5,-396 66.5,-390 66.5,-384 66.5,-384 66.5,-372 66.5,-372 66.5,-366 72.5,-360 78.5,-360 78.5,-360 131.5,-360 131.5,-360 137.5,-360 143.5,-366 143.5,-372 143.5,-372 143.5,-384 143.5,-384 143.5,-390 137.5,-396 131.5,-396"/>
<text text-anchor="middle" x="105" y="-375.5" font-family="sans" font-size="10.00">bin_genome</text>
</g>
<!-- 8&#45;&gt;4 -->
<g id="edge10" class="edge">
<title>8&#45;&gt;4</title>
<path fill="none" stroke="grey" stroke-width="2" d="M105,-359.87C105,-335.67 105,-291.21 105,-262.39"/>
<polygon fill="grey" stroke="grey" stroke-width="2" points="108.5,-262.19 105,-252.19 101.5,-262.19 108.5,-262.19"/>
</g>
<!-- 8&#45;&gt;7 -->
<g id="edge13" class="edge">
<title>8&#45;&gt;7</title>
<path fill="none" stroke="grey" stroke-width="2" d="M127.25,-359.7C138.58,-350.88 152.53,-340.03 164.82,-330.47"/>
<polygon fill="grey" stroke="grey" stroke-width="2" points="167.26,-333.01 173.01,-324.1 162.97,-327.48 167.26,-333.01"/>
</g>
<!-- 9&#45;&gt;7 -->
<g id="edge12" class="edge">
<title>9&#45;&gt;7</title>
<path fill="none" stroke="grey" stroke-width="2" d="M201.02,-359.7C200.14,-351.98 199.08,-342.71 198.1,-334.11"/>
<polygon fill="grey" stroke="grey" stroke-width="2" points="201.57,-333.64 196.95,-324.1 194.61,-334.44 201.57,-333.64"/>
</g>
</g>
</svg>
