<?xml version="1.0" encoding="UTF-8" standalone="no"?>
<!DOCTYPE svg PUBLIC "-//W3C//DTD SVG 1.1//EN"
 "http://www.w3.org/Graphics/SVG/1.1/DTD/svg11.dtd">
<!-- Generated by graphviz version 2.42.3 (20191010.1750)
 -->
<!-- Title: snakemake_dag Pages: 1 -->
<svg width="156pt" height="409pt"
 viewBox="0.00 0.00 156.00 409.00" xmlns="http://www.w3.org/2000/svg" xmlns:xlink="http://www.w3.org/1999/xlink">
<g id="graph0" class="graph" transform="scale(1 1) rotate(0) translate(4 405)">
<title>snakemake_dag</title>
<polygon fill="white" stroke="transparent" points="-4,4 -4,-405 152,-405 152,4 -4,4"/>
<!-- 0 -->
<g id="node1" class="node">
<title>0</title>
<path fill="none" stroke="#68d856" stroke-width="2" stroke-dasharray="5,2" d="M89,-36C89,-36 59,-36 59,-36 53,-36 47,-30 47,-24 47,-24 47,-12 47,-12 47,-6 53,0 59,0 59,0 89,0 89,0 95,0 101,-6 101,-12 101,-12 101,-24 101,-24 101,-30 95,-36 89,-36"/>
<text text-anchor="middle" x="74" y="-15.5" font-family="sans" font-size="10.00">all</text>
</g>
<!-- 1 -->
<g id="node2" class="node">
<title>1</title>
<path fill="none" stroke="#567bd8" stroke-width="2" stroke-dasharray="5,2" d="M89,-108C89,-108 59,-108 59,-108 53,-108 47,-102 47,-96 47,-96 47,-84 47,-84 47,-78 53,-72 59,-72 59,-72 89,-72 89,-72 95,-72 101,-78 101,-84 101,-84 101,-96 101,-96 101,-102 95,-108 89,-108"/>
<text text-anchor="middle" x="74" y="-87.5" font-family="sans" font-size="10.00">finish</text>
</g>
<!-- 1&#45;&gt;0 -->
<g id="edge1" class="edge">
<title>1&#45;&gt;0</title>
<path fill="none" stroke="grey" stroke-width="2" d="M74,-71.7C74,-63.98 74,-54.71 74,-46.11"/>
<polygon fill="grey" stroke="grey" stroke-width="2" points="77.5,-46.1 74,-36.1 70.5,-46.1 77.5,-46.1"/>
</g>
<!-- 2 -->
<g id="node3" class="node">
<title>2</title>
<path fill="none" stroke="#d8a456" stroke-width="2" stroke-dasharray="5,2" d="M93.5,-180C93.5,-180 54.5,-180 54.5,-180 48.5,-180 42.5,-174 42.5,-168 42.5,-168 42.5,-156 42.5,-156 42.5,-150 48.5,-144 54.5,-144 54.5,-144 93.5,-144 93.5,-144 99.5,-144 105.5,-150 105.5,-156 105.5,-156 105.5,-168 105.5,-168 105.5,-174 99.5,-180 93.5,-180"/>
<text text-anchor="middle" x="74" y="-159.5" font-family="sans" font-size="10.00">summary</text>
</g>
<!-- 2&#45;&gt;1 -->
<g id="edge2" class="edge">
<title>2&#45;&gt;1</title>
<path fill="none" stroke="grey" stroke-width="2" d="M74,-143.7C74,-135.98 74,-126.71 74,-118.11"/>
<polygon fill="grey" stroke="grey" stroke-width="2" points="77.5,-118.1 74,-108.1 70.5,-118.1 77.5,-118.1"/>
</g>
<!-- 3 -->
<g id="node4" class="node">
<title>3</title>
<path fill="none" stroke="#8fd856" stroke-width="2" stroke-dasharray="5,2" d="M127.5,-252C127.5,-252 20.5,-252 20.5,-252 14.5,-252 8.5,-246 8.5,-240 8.5,-240 8.5,-228 8.5,-228 8.5,-222 14.5,-216 20.5,-216 20.5,-216 127.5,-216 127.5,-216 133.5,-216 139.5,-222 139.5,-228 139.5,-228 139.5,-240 139.5,-240 139.5,-246 133.5,-252 127.5,-252"/>
<text text-anchor="middle" x="74" y="-231.5" font-family="sans" font-size="10.00">merge_alignment_filter</text>
</g>
<!-- 3&#45;&gt;2 -->
<g id="edge3" class="edge">
<title>3&#45;&gt;2</title>
<path fill="none" stroke="grey" stroke-width="2" d="M74,-215.7C74,-207.98 74,-198.71 74,-190.11"/>
<polygon fill="grey" stroke="grey" stroke-width="2" points="77.5,-190.1 74,-180.1 70.5,-190.1 77.5,-190.1"/>
</g>
<!-- 4 -->
<g id="node5" class="node">
<title>4</title>
<path fill="none" stroke="#d8cb56" stroke-width="2" stroke-dasharray="5,2" d="M136,-329C136,-329 12,-329 12,-329 6,-329 0,-323 0,-317 0,-317 0,-300 0,-300 0,-294 6,-288 12,-288 12,-288 136,-288 136,-288 142,-288 148,-294 148,-300 148,-300 148,-317 148,-317 148,-323 142,-329 136,-329"/>
<text text-anchor="middle" x="74" y="-317" font-family="sans" font-size="10.00">alignment_filter</text>
<text text-anchor="middle" x="74" y="-306" font-family="sans" font-size="10.00">region: chrX:10528&#45;181991</text>
<text text-anchor="middle" x="74" y="-295" font-family="sans" font-size="10.00">sample: chrX</text>
</g>
<!-- 4&#45;&gt;3 -->
<g id="edge4" class="edge">
<title>4&#45;&gt;3</title>
<path fill="none" stroke="grey" stroke-width="2" d="M74,-287.69C74,-279.91 74,-270.84 74,-262.45"/>
<polygon fill="grey" stroke="grey" stroke-width="2" points="77.5,-262.32 74,-252.32 70.5,-262.32 77.5,-262.32"/>
</g>
<!-- 5 -->
<g id="node6" class="node">
<title>5</title>
<path fill="none" stroke="#b6d856" stroke-width="2" stroke-dasharray="5,2" d="M122.5,-401C122.5,-401 25.5,-401 25.5,-401 19.5,-401 13.5,-395 13.5,-389 13.5,-389 13.5,-377 13.5,-377 13.5,-371 19.5,-365 25.5,-365 25.5,-365 122.5,-365 122.5,-365 128.5,-365 134.5,-371 134.5,-377 134.5,-377 134.5,-389 134.5,-389 134.5,-395 128.5,-401 122.5,-401"/>
<text text-anchor="middle" x="74" y="-380.5" font-family="sans" font-size="10.00">generate_bt2_indices</text>
</g>
<!-- 5&#45;&gt;4 -->
<g id="edge5" class="edge">
<title>5&#45;&gt;4</title>
<path fill="none" stroke="grey" stroke-width="2" d="M74,-364.82C74,-357.2 74,-348 74,-339.32"/>
<polygon fill="grey" stroke="grey" stroke-width="2" points="77.5,-339.12 74,-329.12 70.5,-339.12 77.5,-339.12"/>
</g>
</g>
</svg>
