<?xml version="1.0" encoding="UTF-8" standalone="no"?>
<!DOCTYPE svg PUBLIC "-//W3C//DTD SVG 1.1//EN"
 "http://www.w3.org/Graphics/SVG/1.1/DTD/svg11.dtd">
<!-- Generated by graphviz version 2.42.3 (20191010.1750)
 -->
<!-- Title: snakemake_dag Pages: 1 -->
<svg width="310pt" height="486pt"
 viewBox="0.00 0.00 309.50 486.00" xmlns="http://www.w3.org/2000/svg" xmlns:xlink="http://www.w3.org/1999/xlink">
<g id="graph0" class="graph" transform="scale(1 1) rotate(0) translate(4 482)">
<title>snakemake_dag</title>
<polygon fill="white" stroke="transparent" points="-4,4 -4,-482 305.5,-482 305.5,4 -4,4"/>
<!-- 0 -->
<g id="node1" class="node">
<title>0</title>
<path fill="none" stroke="#56a9d8" stroke-width="2" stroke-dasharray="5,2" d="M161.5,-36C161.5,-36 131.5,-36 131.5,-36 125.5,-36 119.5,-30 119.5,-24 119.5,-24 119.5,-12 119.5,-12 119.5,-6 125.5,0 131.5,0 131.5,0 161.5,0 161.5,0 167.5,0 173.5,-6 173.5,-12 173.5,-12 173.5,-24 173.5,-24 173.5,-30 167.5,-36 161.5,-36"/>
<text text-anchor="middle" x="146.5" y="-15.5" font-family="sans" font-size="10.00">all</text>
</g>
<!-- 1 -->
<g id="node2" class="node">
<title>1</title>
<path fill="none" stroke="#8fd856" stroke-width="2" stroke-dasharray="5,2" d="M125.5,-108C125.5,-108 95.5,-108 95.5,-108 89.5,-108 83.5,-102 83.5,-96 83.5,-96 83.5,-84 83.5,-84 83.5,-78 89.5,-72 95.5,-72 95.5,-72 125.5,-72 125.5,-72 131.5,-72 137.5,-78 137.5,-84 137.5,-84 137.5,-96 137.5,-96 137.5,-102 131.5,-108 125.5,-108"/>
<text text-anchor="middle" x="110.5" y="-87.5" font-family="sans" font-size="10.00">finish</text>
</g>
<!-- 1&#45;&gt;0 -->
<g id="edge1" class="edge">
<title>1&#45;&gt;0</title>
<path fill="none" stroke="grey" stroke-width="2" d="M119.4,-71.7C123.5,-63.73 128.45,-54.1 132.99,-45.26"/>
<polygon fill="grey" stroke="grey" stroke-width="2" points="136.24,-46.6 137.7,-36.1 130.02,-43.4 136.24,-46.6"/>
</g>
<!-- 2 -->
<g id="node3" class="node">
<title>2</title>
<path fill="none" stroke="#8fd856" stroke-width="2" stroke-dasharray="5,2" d="M208.5,-108C208.5,-108 178.5,-108 178.5,-108 172.5,-108 166.5,-102 166.5,-96 166.5,-96 166.5,-84 166.5,-84 166.5,-78 172.5,-72 178.5,-72 178.5,-72 208.5,-72 208.5,-72 214.5,-72 220.5,-78 220.5,-84 220.5,-84 220.5,-96 220.5,-96 220.5,-102 214.5,-108 208.5,-108"/>
<text text-anchor="middle" x="193.5" y="-87.5" font-family="sans" font-size="10.00">finish</text>
</g>
<!-- 2&#45;&gt;0 -->
<g id="edge2" class="edge">
<title>2&#45;&gt;0</title>
<path fill="none" stroke="grey" stroke-width="2" d="M181.88,-71.7C176.36,-63.47 169.65,-53.48 163.57,-44.42"/>
<polygon fill="grey" stroke="grey" stroke-width="2" points="166.46,-42.46 157.98,-36.1 160.65,-46.36 166.46,-42.46"/>
</g>
<!-- 3 -->
<g id="node4" class="node">
<title>3</title>
<path fill="none" stroke="#567bd8" stroke-width="2" stroke-dasharray="5,2" d="M126,-180C126,-180 87,-180 87,-180 81,-180 75,-174 75,-168 75,-168 75,-156 75,-156 75,-150 81,-144 87,-144 87,-144 126,-144 126,-144 132,-144 138,-150 138,-156 138,-156 138,-168 138,-168 138,-174 132,-180 126,-180"/>
<text text-anchor="middle" x="106.5" y="-159.5" font-family="sans" font-size="10.00">summary</text>
</g>
<!-- 3&#45;&gt;1 -->
<g id="edge3" class="edge">
<title>3&#45;&gt;1</title>
<path fill="none" stroke="grey" stroke-width="2" d="M107.49,-143.7C107.93,-135.98 108.46,-126.71 108.95,-118.11"/>
<polygon fill="grey" stroke="grey" stroke-width="2" points="112.45,-118.29 109.52,-108.1 105.46,-117.89 112.45,-118.29"/>
</g>
<!-- 4 -->
<g id="node5" class="node">
<title>4</title>
<path fill="none" stroke="#567bd8" stroke-width="2" stroke-dasharray="5,2" d="M225,-180C225,-180 186,-180 186,-180 180,-180 174,-174 174,-168 174,-168 174,-156 174,-156 174,-150 180,-144 186,-144 186,-144 225,-144 225,-144 231,-144 237,-150 237,-156 237,-156 237,-168 237,-168 237,-174 231,-180 225,-180"/>
<text text-anchor="middle" x="205.5" y="-159.5" font-family="sans" font-size="10.00">summary</text>
</g>
<!-- 4&#45;&gt;2 -->
<g id="edge4" class="edge">
<title>4&#45;&gt;2</title>
<path fill="none" stroke="grey" stroke-width="2" d="M202.53,-143.7C201.21,-135.98 199.62,-126.71 198.15,-118.11"/>
<polygon fill="grey" stroke="grey" stroke-width="2" points="201.57,-117.37 196.43,-108.1 194.67,-118.55 201.57,-117.37"/>
</g>
<!-- 5 -->
<g id="node6" class="node">
<title>5</title>
<path fill="none" stroke="#56d8b9" stroke-width="2" stroke-dasharray="5,2" d="M126,-252C126,-252 19,-252 19,-252 13,-252 7,-246 7,-240 7,-240 7,-228 7,-228 7,-222 13,-216 19,-216 19,-216 126,-216 126,-216 132,-216 138,-222 138,-228 138,-228 138,-240 138,-240 138,-246 132,-252 126,-252"/>
<text text-anchor="middle" x="72.5" y="-231.5" font-family="sans" font-size="10.00">merge_alignment_filter</text>
</g>
<!-- 5&#45;&gt;3 -->
<g id="edge5" class="edge">
<title>5&#45;&gt;3</title>
<path fill="none" stroke="grey" stroke-width="2" d="M80.9,-215.7C84.77,-207.73 89.45,-198.1 93.74,-189.26"/>
<polygon fill="grey" stroke="grey" stroke-width="2" points="96.97,-190.63 98.19,-180.1 90.67,-187.57 96.97,-190.63"/>
</g>
<!-- 6 -->
<g id="node7" class="node">
<title>6</title>
<path fill="none" stroke="#56d8b9" stroke-width="2" stroke-dasharray="5,2" d="M278,-252C278,-252 171,-252 171,-252 165,-252 159,-246 159,-240 159,-240 159,-228 159,-228 159,-222 165,-216 171,-216 171,-216 278,-216 278,-216 284,-216 290,-222 290,-228 290,-228 290,-240 290,-240 290,-246 284,-252 278,-252"/>
<text text-anchor="middle" x="224.5" y="-231.5" font-family="sans" font-size="10.00">merge_alignment_filter</text>
</g>
<!-- 6&#45;&gt;4 -->
<g id="edge6" class="edge">
<title>6&#45;&gt;4</title>
<path fill="none" stroke="grey" stroke-width="2" d="M219.8,-215.7C217.69,-207.9 215.14,-198.51 212.78,-189.83"/>
<polygon fill="grey" stroke="grey" stroke-width="2" points="216.14,-188.84 210.14,-180.1 209.38,-190.67 216.14,-188.84"/>
</g>
<!-- 7 -->
<g id="node8" class="node">
<title>7</title>
<path fill="none" stroke="#b6d856" stroke-width="2" stroke-dasharray="5,2" d="M123,-406C123,-406 12,-406 12,-406 6,-406 0,-400 0,-394 0,-394 0,-300 0,-300 0,-294 6,-288 12,-288 12,-288 123,-288 123,-288 129,-288 135,-294 135,-300 135,-300 135,-394 135,-394 135,-400 129,-406 123,-406"/>
<text text-anchor="middle" x="67.5" y="-394" font-family="sans" font-size="10.00">alignment_filter</text>
<text text-anchor="middle" x="67.5" y="-383" font-family="sans" font-size="10.00">c1: 5</text>
<text text-anchor="middle" x="67.5" y="-372" font-family="sans" font-size="10.00">c2: 1</text>
<text text-anchor="middle" x="67.5" y="-361" font-family="sans" font-size="10.00">composition: 0.25</text>
<text text-anchor="middle" x="67.5" y="-350" font-family="sans" font-size="10.00">copy_num: 10</text>
<text text-anchor="middle" x="67.5" y="-339" font-family="sans" font-size="10.00">enrich_score: 0.5</text>
<text text-anchor="middle" x="67.5" y="-328" font-family="sans" font-size="10.00">region: chr4:507&#45;110000</text>
<text text-anchor="middle" x="67.5" y="-317" font-family="sans" font-size="10.00">sample: chr4</text>
<text text-anchor="middle" x="67.5" y="-306" font-family="sans" font-size="10.00">threshold: 5</text>
<text text-anchor="middle" x="67.5" y="-295" font-family="sans" font-size="10.00">window: 4000</text>
</g>
<!-- 7&#45;&gt;5 -->
<g id="edge7" class="edge">
<title>7&#45;&gt;5</title>
<path fill="none" stroke="grey" stroke-width="2" d="M70.12,-287.9C70.52,-279.06 70.91,-270.3 71.26,-262.54"/>
<polygon fill="grey" stroke="grey" stroke-width="2" points="74.77,-262.46 71.72,-252.31 67.77,-262.15 74.77,-262.46"/>
</g>
<!-- 8 -->
<g id="node9" class="node">
<title>8</title>
<path fill="none" stroke="#b6d856" stroke-width="2" stroke-dasharray="5,2" d="M289.5,-406C289.5,-406 165.5,-406 165.5,-406 159.5,-406 153.5,-400 153.5,-394 153.5,-394 153.5,-300 153.5,-300 153.5,-294 159.5,-288 165.5,-288 165.5,-288 289.5,-288 289.5,-288 295.5,-288 301.5,-294 301.5,-300 301.5,-300 301.5,-394 301.5,-394 301.5,-400 295.5,-406 289.5,-406"/>
<text text-anchor="middle" x="227.5" y="-394" font-family="sans" font-size="10.00">alignment_filter</text>
<text text-anchor="middle" x="227.5" y="-383" font-family="sans" font-size="10.00">c1: 5</text>
<text text-anchor="middle" x="227.5" y="-372" font-family="sans" font-size="10.00">c2: 1</text>
<text text-anchor="middle" x="227.5" y="-361" font-family="sans" font-size="10.00">composition: 0.25</text>
<text text-anchor="middle" x="227.5" y="-350" font-family="sans" font-size="10.00">copy_num: 10</text>
<text text-anchor="middle" x="227.5" y="-339" font-family="sans" font-size="10.00">enrich_score: 0.5</text>
<text text-anchor="middle" x="227.5" y="-328" font-family="sans" font-size="10.00">region: chrX:10528&#45;181991</text>
<text text-anchor="middle" x="227.5" y="-317" font-family="sans" font-size="10.00">sample: chrX</text>
<text text-anchor="middle" x="227.5" y="-306" font-family="sans" font-size="10.00">threshold: 5</text>
<text text-anchor="middle" x="227.5" y="-295" font-family="sans" font-size="10.00">window: 4000</text>
</g>
<!-- 8&#45;&gt;6 -->
<g id="edge8" class="edge">
<title>8&#45;&gt;6</title>
<path fill="none" stroke="grey" stroke-width="2" d="M225.93,-287.9C225.69,-279.06 225.45,-270.3 225.24,-262.54"/>
<polygon fill="grey" stroke="grey" stroke-width="2" points="228.74,-262.22 224.97,-252.31 221.74,-262.4 228.74,-262.22"/>
</g>
<!-- 9 -->
<g id="node10" class="node">
<title>9</title>
<path fill="none" stroke="#56d892" stroke-width="2" stroke-dasharray="5,2" d="M196,-478C196,-478 99,-478 99,-478 93,-478 87,-472 87,-466 87,-466 87,-454 87,-454 87,-448 93,-442 99,-442 99,-442 196,-442 196,-442 202,-442 208,-448 208,-454 208,-454 208,-466 208,-466 208,-472 202,-478 196,-478"/>
<text text-anchor="middle" x="147.5" y="-457.5" font-family="sans" font-size="10.00">generate_bt2_indices</text>
</g>
<!-- 9&#45;&gt;7 -->
<g id="edge9" class="edge">
<title>9&#45;&gt;7</title>
<path fill="none" stroke="grey" stroke-width="2" d="M135,-441.66C129.45,-433.96 122.54,-424.36 115.26,-414.27"/>
<polygon fill="grey" stroke="grey" stroke-width="2" points="118.06,-412.17 109.37,-406.1 112.38,-416.26 118.06,-412.17"/>
</g>
<!-- 9&#45;&gt;8 -->
<g id="edge10" class="edge">
<title>9&#45;&gt;8</title>
<path fill="none" stroke="grey" stroke-width="2" d="M160,-441.66C165.55,-433.96 172.46,-424.36 179.74,-414.27"/>
<polygon fill="grey" stroke="grey" stroke-width="2" points="182.62,-416.26 185.63,-406.1 176.94,-412.17 182.62,-416.26"/>
</g>
</g>
</svg>
