<?xml version="1.0" encoding="UTF-8" standalone="no"?>
<!DOCTYPE svg PUBLIC "-//W3C//DTD SVG 1.1//EN"
 "http://www.w3.org/Graphics/SVG/1.1/DTD/svg11.dtd">
<!-- Generated by graphviz version 2.42.3 (20191010.1750)
 -->
<!-- Title: snakemake_dag Pages: 1 -->
<svg width="267pt" height="409pt"
 viewBox="0.00 0.00 266.50 409.00" xmlns="http://www.w3.org/2000/svg" xmlns:xlink="http://www.w3.org/1999/xlink">
<g id="graph0" class="graph" transform="scale(1 1) rotate(0) translate(4 405)">
<title>snakemake_dag</title>
<polygon fill="white" stroke="transparent" points="-4,4 -4,-405 262.5,-405 262.5,4 -4,4"/>
<!-- 0 -->
<g id="node1" class="node">
<title>0</title>
<path fill="none" stroke="#d85656" stroke-width="2" stroke-dasharray="5,2" d="M45.5,-36C45.5,-36 15.5,-36 15.5,-36 9.5,-36 3.5,-30 3.5,-24 3.5,-24 3.5,-12 3.5,-12 3.5,-6 9.5,0 15.5,0 15.5,0 45.5,0 45.5,0 51.5,0 57.5,-6 57.5,-12 57.5,-12 57.5,-24 57.5,-24 57.5,-30 51.5,-36 45.5,-36"/>
<text text-anchor="middle" x="30.5" y="-15.5" font-family="sans" font-size="10.00">all</text>
</g>
<!-- 1 -->
<g id="node2" class="node">
<title>1</title>
<path fill="none" stroke="#56d8a9" stroke-width="2" stroke-dasharray="5,2" d="M65,-324C65,-324 12,-324 12,-324 6,-324 0,-318 0,-312 0,-312 0,-300 0,-300 0,-294 6,-288 12,-288 12,-288 65,-288 65,-288 71,-288 77,-294 77,-300 77,-300 77,-312 77,-312 77,-318 71,-324 65,-324"/>
<text text-anchor="middle" x="38.5" y="-303.5" font-family="sans" font-size="10.00">bin_genome</text>
</g>
<!-- 1&#45;&gt;0 -->
<g id="edge1" class="edge">
<title>1&#45;&gt;0</title>
<path fill="none" stroke="grey" stroke-width="2" d="M38.02,-287.97C36.69,-240.29 32.91,-105.18 31.27,-46.63"/>
<polygon fill="grey" stroke="grey" stroke-width="2" points="34.76,-46.2 30.98,-36.31 27.77,-46.4 34.76,-46.2"/>
</g>
<!-- 3 -->
<g id="node4" class="node">
<title>3</title>
<path fill="none" stroke="#56c9d8" stroke-width="2" stroke-dasharray="5,2" d="M132,-180C132,-180 67,-180 67,-180 61,-180 55,-174 55,-168 55,-168 55,-156 55,-156 55,-150 61,-144 67,-144 67,-144 132,-144 132,-144 138,-144 144,-150 144,-156 144,-156 144,-168 144,-168 144,-174 138,-180 132,-180"/>
<text text-anchor="middle" x="99.5" y="-159.5" font-family="sans" font-size="10.00">generate_plots</text>
</g>
<!-- 1&#45;&gt;3 -->
<g id="edge4" class="edge">
<title>1&#45;&gt;3</title>
<path fill="none" stroke="grey" stroke-width="2" d="M40.69,-287.94C43.51,-269.51 49.42,-239.63 60.5,-216 65.08,-206.22 71.6,-196.44 77.99,-187.99"/>
<polygon fill="grey" stroke="grey" stroke-width="2" points="80.82,-190.06 84.27,-180.04 75.33,-185.72 80.82,-190.06"/>
</g>
<!-- 4 -->
<g id="node5" class="node">
<title>4</title>
<path fill="none" stroke="#56d873" stroke-width="2" stroke-dasharray="5,2" d="M165,-252C165,-252 82,-252 82,-252 76,-252 70,-246 70,-240 70,-240 70,-228 70,-228 70,-222 76,-216 82,-216 82,-216 165,-216 165,-216 171,-216 177,-222 177,-228 177,-228 177,-240 177,-240 177,-246 171,-252 165,-252"/>
<text text-anchor="middle" x="123.5" y="-231.5" font-family="sans" font-size="10.00">bedtools_intersect</text>
</g>
<!-- 1&#45;&gt;4 -->
<g id="edge8" class="edge">
<title>1&#45;&gt;4</title>
<path fill="none" stroke="grey" stroke-width="2" d="M59.51,-287.7C70.22,-278.88 83.39,-268.03 95,-258.47"/>
<polygon fill="grey" stroke="grey" stroke-width="2" points="97.24,-261.16 102.73,-252.1 92.79,-255.76 97.24,-261.16"/>
</g>
<!-- 2 -->
<g id="node3" class="node">
<title>2</title>
<path fill="none" stroke="#d88d56" stroke-width="2" stroke-dasharray="5,2" d="M93.5,-108C93.5,-108 63.5,-108 63.5,-108 57.5,-108 51.5,-102 51.5,-96 51.5,-96 51.5,-84 51.5,-84 51.5,-78 57.5,-72 63.5,-72 63.5,-72 93.5,-72 93.5,-72 99.5,-72 105.5,-78 105.5,-84 105.5,-84 105.5,-96 105.5,-96 105.5,-102 99.5,-108 93.5,-108"/>
<text text-anchor="middle" x="78.5" y="-87.5" font-family="sans" font-size="10.00">final</text>
</g>
<!-- 2&#45;&gt;0 -->
<g id="edge2" class="edge">
<title>2&#45;&gt;0</title>
<path fill="none" stroke="grey" stroke-width="2" d="M66.63,-71.7C61,-63.47 54.15,-53.48 47.93,-44.42"/>
<polygon fill="grey" stroke="grey" stroke-width="2" points="50.77,-42.37 42.23,-36.1 45,-46.33 50.77,-42.37"/>
</g>
<!-- 3&#45;&gt;2 -->
<g id="edge3" class="edge">
<title>3&#45;&gt;2</title>
<path fill="none" stroke="grey" stroke-width="2" d="M94.31,-143.7C91.97,-135.9 89.15,-126.51 86.55,-117.83"/>
<polygon fill="grey" stroke="grey" stroke-width="2" points="89.86,-116.68 83.63,-108.1 83.15,-118.69 89.86,-116.68"/>
</g>
<!-- 4&#45;&gt;3 -->
<g id="edge5" class="edge">
<title>4&#45;&gt;3</title>
<path fill="none" stroke="grey" stroke-width="2" d="M117.57,-215.7C114.89,-207.9 111.67,-198.51 108.7,-189.83"/>
<polygon fill="grey" stroke="grey" stroke-width="2" points="111.92,-188.43 105.36,-180.1 105.3,-190.7 111.92,-188.43"/>
</g>
<!-- 5 -->
<g id="node6" class="node">
<title>5</title>
<path fill="none" stroke="#5692d8" stroke-width="2" stroke-dasharray="5,2" d="M246.5,-401C246.5,-401 94.5,-401 94.5,-401 88.5,-401 82.5,-395 82.5,-389 82.5,-389 82.5,-372 82.5,-372 82.5,-366 88.5,-360 94.5,-360 94.5,-360 246.5,-360 246.5,-360 252.5,-360 258.5,-366 258.5,-372 258.5,-372 258.5,-389 258.5,-389 258.5,-395 252.5,-401 246.5,-401"/>
<text text-anchor="middle" x="170.5" y="-389" font-family="sans" font-size="10.00">align_probes</text>
<text text-anchor="middle" x="170.5" y="-378" font-family="sans" font-size="10.00">probe_coords: chrX:15770&#45;15810</text>
<text text-anchor="middle" x="170.5" y="-367" font-family="sans" font-size="10.00">sample: chrX</text>
</g>
<!-- 5&#45;&gt;3 -->
<g id="edge6" class="edge">
<title>5&#45;&gt;3</title>
<path fill="none" stroke="grey" stroke-width="2" d="M179.12,-359.85C191.89,-327.53 211.67,-262.11 185.5,-216 178.04,-202.86 165.87,-192.57 153,-184.69"/>
<polygon fill="grey" stroke="grey" stroke-width="2" points="154.45,-181.49 144.03,-179.61 151.01,-187.58 154.45,-181.49"/>
</g>
<!-- 6 -->
<g id="node7" class="node">
<title>6</title>
<path fill="none" stroke="#afd856" stroke-width="2" stroke-dasharray="5,2" d="M165.5,-324C165.5,-324 107.5,-324 107.5,-324 101.5,-324 95.5,-318 95.5,-312 95.5,-312 95.5,-300 95.5,-300 95.5,-294 101.5,-288 107.5,-288 107.5,-288 165.5,-288 165.5,-288 171.5,-288 177.5,-294 177.5,-300 177.5,-300 177.5,-312 177.5,-312 177.5,-318 171.5,-324 165.5,-324"/>
<text text-anchor="middle" x="136.5" y="-303.5" font-family="sans" font-size="10.00">derived_beds</text>
</g>
<!-- 5&#45;&gt;6 -->
<g id="edge9" class="edge">
<title>5&#45;&gt;6</title>
<path fill="none" stroke="grey" stroke-width="2" d="M161.21,-359.69C157.44,-351.65 153.02,-342.24 148.98,-333.61"/>
<polygon fill="grey" stroke="grey" stroke-width="2" points="152.04,-331.89 144.62,-324.32 145.7,-334.86 152.04,-331.89"/>
</g>
<!-- 6&#45;&gt;4 -->
<g id="edge7" class="edge">
<title>6&#45;&gt;4</title>
<path fill="none" stroke="grey" stroke-width="2" d="M133.29,-287.7C131.85,-279.98 130.13,-270.71 128.54,-262.11"/>
<polygon fill="grey" stroke="grey" stroke-width="2" points="131.94,-261.3 126.68,-252.1 125.06,-262.58 131.94,-261.3"/>
</g>
</g>
</svg>
