<?xml version="1.0" encoding="UTF-8" standalone="no"?>
<!DOCTYPE svg PUBLIC "-//W3C//DTD SVG 1.1//EN"
 "http://www.w3.org/Graphics/SVG/1.1/DTD/svg11.dtd">
<!-- Generated by graphviz version 2.38.0 (20140413.2041)
 -->
<!-- Title: snakemake_dag Pages: 1 -->
<svg width="267pt" height="481pt"
 viewBox="0.00 0.00 266.50 481.00" xmlns="http://www.w3.org/2000/svg" xmlns:xlink="http://www.w3.org/1999/xlink">
<g id="graph0" class="graph" transform="scale(1 1) rotate(0) translate(4 477)">
<title>snakemake_dag</title>
<polygon fill="white" stroke="none" points="-4,4 -4,-477 262.5,-477 262.5,4 -4,4"/>
<!-- 0 -->
<g id="node1" class="node"><title>0</title>
<path fill="none" stroke="#d88d56" stroke-width="2" stroke-dasharray="5,2" d="M58.5,-36C58.5,-36 28.5,-36 28.5,-36 22.5,-36 16.5,-30 16.5,-24 16.5,-24 16.5,-12 16.5,-12 16.5,-6 22.5,-0 28.5,-0 28.5,-0 58.5,-0 58.5,-0 64.5,-0 70.5,-6 70.5,-12 70.5,-12 70.5,-24 70.5,-24 70.5,-30 64.5,-36 58.5,-36"/>
<text text-anchor="middle" x="43.5" y="-15.5" font-family="sans" font-size="10.00">all</text>
</g>
<!-- 1 -->
<g id="node2" class="node"><title>1</title>
<path fill="none" stroke="#d8bc56" stroke-width="2" stroke-dasharray="5,2" d="M65,-396C65,-396 12,-396 12,-396 6,-396 0,-390 0,-384 0,-384 0,-372 0,-372 0,-366 6,-360 12,-360 12,-360 65,-360 65,-360 71,-360 77,-366 77,-372 77,-372 77,-384 77,-384 77,-390 71,-396 65,-396"/>
<text text-anchor="middle" x="38.5" y="-375.5" font-family="sans" font-size="10.00">bin_genome</text>
</g>
<!-- 1&#45;&gt;0 -->
<g id="edge1" class="edge"><title>1&#45;&gt;0</title>
<path fill="none" stroke="grey" stroke-width="2" d="M31.4172,-359.848C21.1901,-333.487 3.5,-281.211 3.5,-235 3.5,-235 3.5,-235 3.5,-161 3.5,-119.484 19.5366,-73.6123 31.3018,-45.545"/>
<polygon fill="grey" stroke="grey" stroke-width="2" points="34.6505,-46.6189 35.4054,-36.051 28.225,-43.8415 34.6505,-46.6189"/>
</g>
<!-- 4 -->
<g id="node5" class="node"><title>4</title>
<path fill="none" stroke="#59d856" stroke-width="2" stroke-dasharray="5,2" d="M148,-252C148,-252 83,-252 83,-252 77,-252 71,-246 71,-240 71,-240 71,-228 71,-228 71,-222 77,-216 83,-216 83,-216 148,-216 148,-216 154,-216 160,-222 160,-228 160,-228 160,-240 160,-240 160,-246 154,-252 148,-252"/>
<text text-anchor="middle" x="115.5" y="-231.5" font-family="sans" font-size="10.00">generate_plots</text>
</g>
<!-- 1&#45;&gt;4 -->
<g id="edge5" class="edge"><title>1&#45;&gt;4</title>
<path fill="none" stroke="grey" stroke-width="2" d="M39.8898,-359.881C42.0331,-341.146 47.3797,-310.75 60.5,-288 66.7625,-277.141 75.8995,-267.075 84.9342,-258.697"/>
<polygon fill="grey" stroke="grey" stroke-width="2" points="87.2537,-261.318 92.4339,-252.076 82.6209,-256.07 87.2537,-261.318"/>
</g>
<!-- 5 -->
<g id="node6" class="node"><title>5</title>
<path fill="none" stroke="#56d88a" stroke-width="2" stroke-dasharray="5,2" d="M165,-324C165,-324 82,-324 82,-324 76,-324 70,-318 70,-312 70,-312 70,-300 70,-300 70,-294 76,-288 82,-288 82,-288 165,-288 165,-288 171,-288 177,-294 177,-300 177,-300 177,-312 177,-312 177,-318 171,-324 165,-324"/>
<text text-anchor="middle" x="123.5" y="-303.5" font-family="sans" font-size="10.00">bedtools_intersect</text>
</g>
<!-- 1&#45;&gt;5 -->
<g id="edge9" class="edge"><title>1&#45;&gt;5</title>
<path fill="none" stroke="grey" stroke-width="2" d="M59.5112,-359.697C70.2163,-350.881 83.3897,-340.032 94.9956,-330.474"/>
<polygon fill="grey" stroke="grey" stroke-width="2" points="97.2361,-333.163 102.73,-324.104 92.7861,-327.76 97.2361,-333.163"/>
</g>
<!-- 2 -->
<g id="node3" class="node"><title>2</title>
<path fill="none" stroke="#56c1d8" stroke-width="2" stroke-dasharray="5,2" d="M98.5,-108C98.5,-108 68.5,-108 68.5,-108 62.5,-108 56.5,-102 56.5,-96 56.5,-96 56.5,-84 56.5,-84 56.5,-78 62.5,-72 68.5,-72 68.5,-72 98.5,-72 98.5,-72 104.5,-72 110.5,-78 110.5,-84 110.5,-84 110.5,-96 110.5,-96 110.5,-102 104.5,-108 98.5,-108"/>
<text text-anchor="middle" x="83.5" y="-87.5" font-family="sans" font-size="10.00">final</text>
</g>
<!-- 2&#45;&gt;0 -->
<g id="edge2" class="edge"><title>2&#45;&gt;0</title>
<path fill="none" stroke="grey" stroke-width="2" d="M73.6124,-71.6966C69.0107,-63.6436 63.4397,-53.8945 58.3471,-44.9824"/>
<polygon fill="grey" stroke="grey" stroke-width="2" points="61.2742,-43.0503 53.2739,-36.1043 55.1965,-46.5233 61.2742,-43.0503"/>
</g>
<!-- 3 -->
<g id="node4" class="node"><title>3</title>
<path fill="none" stroke="#d85656" stroke-width="2" stroke-dasharray="5,2" d="M158.5,-180C158.5,-180 58.5,-180 58.5,-180 52.5,-180 46.5,-174 46.5,-168 46.5,-168 46.5,-156 46.5,-156 46.5,-150 52.5,-144 58.5,-144 58.5,-144 158.5,-144 158.5,-144 164.5,-144 170.5,-150 170.5,-156 170.5,-156 170.5,-168 170.5,-168 170.5,-174 164.5,-180 158.5,-180"/>
<text text-anchor="middle" x="108.5" y="-159.5" font-family="sans" font-size="10.00">generate_chromomap</text>
</g>
<!-- 3&#45;&gt;2 -->
<g id="edge3" class="edge"><title>3&#45;&gt;2</title>
<path fill="none" stroke="grey" stroke-width="2" d="M102.32,-143.697C99.5047,-135.813 96.1087,-126.304 92.9809,-117.546"/>
<polygon fill="grey" stroke="grey" stroke-width="2" points="96.2682,-116.345 89.6087,-108.104 89.676,-118.699 96.2682,-116.345"/>
</g>
<!-- 4&#45;&gt;3 -->
<g id="edge4" class="edge"><title>4&#45;&gt;3</title>
<path fill="none" stroke="grey" stroke-width="2" d="M113.77,-215.697C112.998,-207.983 112.071,-198.712 111.211,-190.112"/>
<polygon fill="grey" stroke="grey" stroke-width="2" points="114.688,-189.706 110.21,-180.104 107.723,-190.403 114.688,-189.706"/>
</g>
<!-- 5&#45;&gt;4 -->
<g id="edge6" class="edge"><title>5&#45;&gt;4</title>
<path fill="none" stroke="grey" stroke-width="2" d="M121.522,-287.697C120.641,-279.983 119.581,-270.712 118.599,-262.112"/>
<polygon fill="grey" stroke="grey" stroke-width="2" points="122.068,-261.642 117.455,-252.104 115.113,-262.437 122.068,-261.642"/>
</g>
<!-- 6 -->
<g id="node7" class="node"><title>6</title>
<path fill="none" stroke="#56d8c1" stroke-width="2" stroke-dasharray="5,2" d="M246.5,-473C246.5,-473 94.5,-473 94.5,-473 88.5,-473 82.5,-467 82.5,-461 82.5,-461 82.5,-444 82.5,-444 82.5,-438 88.5,-432 94.5,-432 94.5,-432 246.5,-432 246.5,-432 252.5,-432 258.5,-438 258.5,-444 258.5,-444 258.5,-461 258.5,-461 258.5,-467 252.5,-473 246.5,-473"/>
<text text-anchor="middle" x="170.5" y="-461" font-family="sans" font-size="10.00">align_probes</text>
<text text-anchor="middle" x="170.5" y="-450" font-family="sans" font-size="10.00">probe_coords: chrX:15770&#45;15810</text>
<text text-anchor="middle" x="170.5" y="-439" font-family="sans" font-size="10.00">sample: chrX</text>
</g>
<!-- 6&#45;&gt;4 -->
<g id="edge7" class="edge"><title>6&#45;&gt;4</title>
<path fill="none" stroke="grey" stroke-width="2" d="M178.717,-431.865C190.77,-399.835 209.367,-335.183 185.5,-288 179.414,-275.969 169.177,-265.924 158.384,-257.93"/>
<polygon fill="grey" stroke="grey" stroke-width="2" points="160.303,-255.002 150.081,-252.217 156.335,-260.769 160.303,-255.002"/>
</g>
<!-- 7 -->
<g id="node8" class="node"><title>7</title>
<path fill="none" stroke="#bed856" stroke-width="2" stroke-dasharray="5,2" d="M165.5,-396C165.5,-396 107.5,-396 107.5,-396 101.5,-396 95.5,-390 95.5,-384 95.5,-384 95.5,-372 95.5,-372 95.5,-366 101.5,-360 107.5,-360 107.5,-360 165.5,-360 165.5,-360 171.5,-360 177.5,-366 177.5,-372 177.5,-372 177.5,-384 177.5,-384 177.5,-390 171.5,-396 165.5,-396"/>
<text text-anchor="middle" x="136.5" y="-375.5" font-family="sans" font-size="10.00">derived_beds</text>
</g>
<!-- 6&#45;&gt;7 -->
<g id="edge10" class="edge"><title>6&#45;&gt;7</title>
<path fill="none" stroke="grey" stroke-width="2" d="M161.209,-431.689C157.438,-423.647 153.024,-414.236 148.979,-405.61"/>
<polygon fill="grey" stroke="grey" stroke-width="2" points="152.037,-403.887 144.622,-396.319 145.699,-406.859 152.037,-403.887"/>
</g>
<!-- 7&#45;&gt;5 -->
<g id="edge8" class="edge"><title>7&#45;&gt;5</title>
<path fill="none" stroke="grey" stroke-width="2" d="M133.287,-359.697C131.854,-351.983 130.132,-342.712 128.535,-334.112"/>
<polygon fill="grey" stroke="grey" stroke-width="2" points="131.944,-333.297 126.677,-324.104 125.061,-334.575 131.944,-333.297"/>
</g>
</g>
</svg>
