<?xml version="1.0" encoding="UTF-8" standalone="no"?>
<!DOCTYPE svg PUBLIC "-//W3C//DTD SVG 1.1//EN"
 "http://www.w3.org/Graphics/SVG/1.1/DTD/svg11.dtd">
<!-- Generated by graphviz version 2.42.3 (20191010.1750)
 -->
<!-- Title: snakemake_dag Pages: 1 -->
<svg width="328pt" height="674pt"
 viewBox="0.00 0.00 327.50 674.00" xmlns="http://www.w3.org/2000/svg" xmlns:xlink="http://www.w3.org/1999/xlink">
<g id="graph0" class="graph" transform="scale(1 1) rotate(0) translate(4 670)">
<title>snakemake_dag</title>
<polygon fill="white" stroke="transparent" points="-4,4 -4,-670 323.5,-670 323.5,4 -4,4"/>
<!-- 0 -->
<g id="node1" class="node">
<title>0</title>
<path fill="none" stroke="#ced856" stroke-width="2" stroke-dasharray="5,2" d="M210,-36C210,-36 180,-36 180,-36 174,-36 168,-30 168,-24 168,-24 168,-12 168,-12 168,-6 174,0 180,0 180,0 210,0 210,0 216,0 222,-6 222,-12 222,-12 222,-24 222,-24 222,-30 216,-36 210,-36"/>
<text text-anchor="middle" x="195" y="-15.5" font-family="sans" font-size="10.00">all</text>
</g>
<!-- 1 -->
<g id="node2" class="node">
<title>1</title>
<path fill="none" stroke="#d88556" stroke-width="2" stroke-dasharray="5,2" d="M210,-108C210,-108 180,-108 180,-108 174,-108 168,-102 168,-96 168,-96 168,-84 168,-84 168,-78 174,-72 180,-72 180,-72 210,-72 210,-72 216,-72 222,-78 222,-84 222,-84 222,-96 222,-96 222,-102 216,-108 210,-108"/>
<text text-anchor="middle" x="195" y="-87.5" font-family="sans" font-size="10.00">finish</text>
</g>
<!-- 1&#45;&gt;0 -->
<g id="edge1" class="edge">
<title>1&#45;&gt;0</title>
<path fill="none" stroke="grey" stroke-width="2" d="M195,-71.7C195,-63.98 195,-54.71 195,-46.11"/>
<polygon fill="grey" stroke="grey" stroke-width="2" points="198.5,-46.1 195,-36.1 191.5,-46.1 198.5,-46.1"/>
</g>
<!-- 2 -->
<g id="node3" class="node">
<title>2</title>
<path fill="none" stroke="#70d856" stroke-width="2" stroke-dasharray="5,2" d="M214.5,-180C214.5,-180 175.5,-180 175.5,-180 169.5,-180 163.5,-174 163.5,-168 163.5,-168 163.5,-156 163.5,-156 163.5,-150 169.5,-144 175.5,-144 175.5,-144 214.5,-144 214.5,-144 220.5,-144 226.5,-150 226.5,-156 226.5,-156 226.5,-168 226.5,-168 226.5,-174 220.5,-180 214.5,-180"/>
<text text-anchor="middle" x="195" y="-159.5" font-family="sans" font-size="10.00">summary</text>
</g>
<!-- 2&#45;&gt;1 -->
<g id="edge2" class="edge">
<title>2&#45;&gt;1</title>
<path fill="none" stroke="grey" stroke-width="2" d="M195,-143.7C195,-135.98 195,-126.71 195,-118.11"/>
<polygon fill="grey" stroke="grey" stroke-width="2" points="198.5,-118.1 195,-108.1 191.5,-118.1 198.5,-118.1"/>
</g>
<!-- 3 -->
<g id="node4" class="node">
<title>3</title>
<path fill="none" stroke="#56d8c9" stroke-width="2" stroke-dasharray="5,2" d="M230,-252C230,-252 160,-252 160,-252 154,-252 148,-246 148,-240 148,-240 148,-228 148,-228 148,-222 154,-216 160,-216 160,-216 230,-216 230,-216 236,-216 242,-222 242,-228 242,-228 242,-240 242,-240 242,-246 236,-252 230,-252"/>
<text text-anchor="middle" x="195" y="-231.5" font-family="sans" font-size="10.00">alignment_filter</text>
</g>
<!-- 3&#45;&gt;2 -->
<g id="edge3" class="edge">
<title>3&#45;&gt;2</title>
<path fill="none" stroke="grey" stroke-width="2" d="M195,-215.7C195,-207.98 195,-198.71 195,-190.11"/>
<polygon fill="grey" stroke="grey" stroke-width="2" points="198.5,-190.1 195,-180.1 191.5,-190.1 198.5,-190.1"/>
</g>
<!-- 4 -->
<g id="node5" class="node">
<title>4</title>
<path fill="none" stroke="#56d86b" stroke-width="2" stroke-dasharray="5,2" d="M168.5,-324C168.5,-324 95.5,-324 95.5,-324 89.5,-324 83.5,-318 83.5,-312 83.5,-312 83.5,-300 83.5,-300 83.5,-294 89.5,-288 95.5,-288 95.5,-288 168.5,-288 168.5,-288 174.5,-288 180.5,-294 180.5,-300 180.5,-300 180.5,-312 180.5,-312 180.5,-318 174.5,-324 168.5,-324"/>
<text text-anchor="middle" x="132" y="-303.5" font-family="sans" font-size="10.00">probe_mer_filter</text>
</g>
<!-- 4&#45;&gt;3 -->
<g id="edge4" class="edge">
<title>4&#45;&gt;3</title>
<path fill="none" stroke="grey" stroke-width="2" d="M147.57,-287.7C155.2,-279.22 164.52,-268.86 172.88,-259.58"/>
<polygon fill="grey" stroke="grey" stroke-width="2" points="175.52,-261.88 179.61,-252.1 170.31,-257.2 175.52,-261.88"/>
</g>
<!-- 5 -->
<g id="node6" class="node">
<title>5</title>
<path fill="none" stroke="#5682d8" stroke-width="2" stroke-dasharray="5,2" d="M307.5,-324C307.5,-324 210.5,-324 210.5,-324 204.5,-324 198.5,-318 198.5,-312 198.5,-312 198.5,-300 198.5,-300 198.5,-294 204.5,-288 210.5,-288 210.5,-288 307.5,-288 307.5,-288 313.5,-288 319.5,-294 319.5,-300 319.5,-300 319.5,-312 319.5,-312 319.5,-318 313.5,-324 307.5,-324"/>
<text text-anchor="middle" x="259" y="-303.5" font-family="sans" font-size="10.00">generate_bt2_indices</text>
</g>
<!-- 5&#45;&gt;3 -->
<g id="edge5" class="edge">
<title>5&#45;&gt;3</title>
<path fill="none" stroke="grey" stroke-width="2" d="M243.18,-287.7C235.43,-279.22 225.96,-268.86 217.48,-259.58"/>
<polygon fill="grey" stroke="grey" stroke-width="2" points="219.97,-257.12 210.64,-252.1 214.8,-261.85 219.97,-257.12"/>
</g>
<!-- 6 -->
<g id="node7" class="node">
<title>6</title>
<path fill="none" stroke="#9fd856" stroke-width="2" stroke-dasharray="5,2" d="M169.5,-423C169.5,-423 94.5,-423 94.5,-423 88.5,-423 82.5,-417 82.5,-411 82.5,-411 82.5,-372 82.5,-372 82.5,-366 88.5,-360 94.5,-360 94.5,-360 169.5,-360 169.5,-360 175.5,-360 181.5,-366 181.5,-372 181.5,-372 181.5,-411 181.5,-411 181.5,-417 175.5,-423 169.5,-423"/>
<text text-anchor="middle" x="132" y="-411" font-family="sans" font-size="10.00">kmer_filter</text>
<text text-anchor="middle" x="132" y="-400" font-family="sans" font-size="10.00">c1: 5</text>
<text text-anchor="middle" x="132" y="-389" font-family="sans" font-size="10.00">c2: 1</text>
<text text-anchor="middle" x="132" y="-378" font-family="sans" font-size="10.00">copy_num: 10</text>
<text text-anchor="middle" x="132" y="-367" font-family="sans" font-size="10.00">enrich_score: 0.5</text>
</g>
<!-- 6&#45;&gt;4 -->
<g id="edge6" class="edge">
<title>6&#45;&gt;4</title>
<path fill="none" stroke="grey" stroke-width="2" d="M132,-359.88C132,-351.47 132,-342.4 132,-334.19"/>
<polygon fill="grey" stroke="grey" stroke-width="2" points="135.5,-334.03 132,-324.03 128.5,-334.03 135.5,-334.03"/>
</g>
<!-- 7 -->
<g id="node8" class="node">
<title>7</title>
<path fill="none" stroke="#d85656" stroke-width="2" stroke-dasharray="5,2" d="M202,-580.5C202,-580.5 134,-580.5 134,-580.5 128,-580.5 122,-574.5 122,-568.5 122,-568.5 122,-556.5 122,-556.5 122,-550.5 128,-544.5 134,-544.5 134,-544.5 202,-544.5 202,-544.5 208,-544.5 214,-550.5 214,-556.5 214,-556.5 214,-568.5 214,-568.5 214,-574.5 208,-580.5 202,-580.5"/>
<text text-anchor="middle" x="168" y="-565.5" font-family="sans" font-size="10.00">generate_jf_idx</text>
<text text-anchor="middle" x="168" y="-554.5" font-family="sans" font-size="10.00">sample: chrX</text>
</g>
<!-- 7&#45;&gt;6 -->
<g id="edge7" class="edge">
<title>7&#45;&gt;6</title>
<path fill="none" stroke="grey" stroke-width="2" d="M164.9,-544.41C161.15,-524.02 154.52,-488.94 148,-459 146.17,-450.58 144.09,-441.58 142.05,-433.02"/>
<polygon fill="grey" stroke="grey" stroke-width="2" points="145.43,-432.13 139.69,-423.23 138.63,-433.77 145.43,-432.13"/>
</g>
<!-- 8 -->
<g id="node9" class="node">
<title>8</title>
<path fill="none" stroke="#d8b456" stroke-width="2" stroke-dasharray="5,2" d="M127.5,-495C127.5,-495 64.5,-495 64.5,-495 58.5,-495 52.5,-489 52.5,-483 52.5,-483 52.5,-471 52.5,-471 52.5,-465 58.5,-459 64.5,-459 64.5,-459 127.5,-459 127.5,-459 133.5,-459 139.5,-465 139.5,-471 139.5,-471 139.5,-483 139.5,-483 139.5,-489 133.5,-495 127.5,-495"/>
<text text-anchor="middle" x="96" y="-474.5" font-family="sans" font-size="10.00">design_probes</text>
</g>
<!-- 7&#45;&gt;8 -->
<g id="edge11" class="edge">
<title>7&#45;&gt;8</title>
<path fill="none" stroke="grey" stroke-width="2" d="M153.08,-544.2C142.85,-532.33 129.11,-516.39 117.67,-503.13"/>
<polygon fill="grey" stroke="grey" stroke-width="2" points="120.08,-500.57 110.9,-495.28 114.78,-505.14 120.08,-500.57"/>
</g>
<!-- 8&#45;&gt;6 -->
<g id="edge8" class="edge">
<title>8&#45;&gt;6</title>
<path fill="none" stroke="grey" stroke-width="2" d="M103.46,-458.7C106.73,-451.11 110.72,-441.86 114.66,-432.71"/>
<polygon fill="grey" stroke="grey" stroke-width="2" points="117.98,-433.85 118.73,-423.28 111.56,-431.08 117.98,-433.85"/>
</g>
<!-- 9 -->
<g id="node10" class="node">
<title>9</title>
<path fill="none" stroke="#56d89a" stroke-width="2" stroke-dasharray="5,2" d="M208,-666C208,-666 128,-666 128,-666 122,-666 116,-660 116,-654 116,-654 116,-642 116,-642 116,-636 122,-630 128,-630 128,-630 208,-630 208,-630 214,-630 220,-636 220,-642 220,-642 220,-654 220,-654 220,-660 214,-666 208,-666"/>
<text text-anchor="middle" x="168" y="-645.5" font-family="sans" font-size="10.00">generate_jf_count</text>
</g>
<!-- 9&#45;&gt;7 -->
<g id="edge9" class="edge">
<title>9&#45;&gt;7</title>
<path fill="none" stroke="grey" stroke-width="2" d="M168,-629.7C168,-618.5 168,-603.69 168,-590.91"/>
<polygon fill="grey" stroke="grey" stroke-width="2" points="171.5,-590.78 168,-580.78 164.5,-590.78 171.5,-590.78"/>
</g>
<!-- 10 -->
<g id="node11" class="node">
<title>10</title>
<path fill="none" stroke="#56b1d8" stroke-width="2" stroke-dasharray="5,2" d="M92,-594C92,-594 12,-594 12,-594 6,-594 0,-588 0,-582 0,-582 0,-543 0,-543 0,-537 6,-531 12,-531 12,-531 92,-531 92,-531 98,-531 104,-537 104,-543 104,-543 104,-582 104,-582 104,-588 98,-594 92,-594"/>
<text text-anchor="middle" x="52" y="-582" font-family="sans" font-size="10.00">split_bed</text>
<text text-anchor="middle" x="52" y="-571" font-family="sans" font-size="10.00">composition: 0.25</text>
<text text-anchor="middle" x="52" y="-560" font-family="sans" font-size="10.00">sample: chrX</text>
<text text-anchor="middle" x="52" y="-549" font-family="sans" font-size="10.00">threshold: 5</text>
<text text-anchor="middle" x="52" y="-538" font-family="sans" font-size="10.00">window: 4000</text>
</g>
<!-- 10&#45;&gt;8 -->
<g id="edge10" class="edge">
<title>10&#45;&gt;8</title>
<path fill="none" stroke="grey" stroke-width="2" d="M68.13,-530.88C72.77,-522.09 77.78,-512.59 82.25,-504.09"/>
<polygon fill="grey" stroke="grey" stroke-width="2" points="85.46,-505.51 87.03,-495.03 79.27,-502.24 85.46,-505.51"/>
</g>
</g>
</svg>
