<?xml version="1.0" encoding="UTF-8" standalone="no"?>
<!DOCTYPE svg PUBLIC "-//W3C//DTD SVG 1.1//EN"
 "http://www.w3.org/Graphics/SVG/1.1/DTD/svg11.dtd">
<!-- Generated by graphviz version 2.42.3 (20191010.1750)
 -->
<!-- Title: snakemake_dag Pages: 1 -->
<svg width="310pt" height="409pt"
 viewBox="0.00 0.00 309.50 409.00" xmlns="http://www.w3.org/2000/svg" xmlns:xlink="http://www.w3.org/1999/xlink">
<g id="graph0" class="graph" transform="scale(1 1) rotate(0) translate(4 405)">
<title>snakemake_dag</title>
<polygon fill="white" stroke="transparent" points="-4,4 -4,-405 305.5,-405 305.5,4 -4,4"/>
<!-- 0 -->
<g id="node1" class="node">
<title>0</title>
<path fill="none" stroke="#56d87b" stroke-width="2" stroke-dasharray="5,2" d="M161.5,-36C161.5,-36 131.5,-36 131.5,-36 125.5,-36 119.5,-30 119.5,-24 119.5,-24 119.5,-12 119.5,-12 119.5,-6 125.5,0 131.5,0 131.5,0 161.5,0 161.5,0 167.5,0 173.5,-6 173.5,-12 173.5,-12 173.5,-24 173.5,-24 173.5,-30 167.5,-36 161.5,-36"/>
<text text-anchor="middle" x="146.5" y="-15.5" font-family="sans" font-size="10.00">all</text>
</g>
<!-- 1 -->
<g id="node2" class="node">
<title>1</title>
<path fill="none" stroke="#9fd856" stroke-width="2" stroke-dasharray="5,2" d="M125.5,-108C125.5,-108 95.5,-108 95.5,-108 89.5,-108 83.5,-102 83.5,-96 83.5,-96 83.5,-84 83.5,-84 83.5,-78 89.5,-72 95.5,-72 95.5,-72 125.5,-72 125.5,-72 131.5,-72 137.5,-78 137.5,-84 137.5,-84 137.5,-96 137.5,-96 137.5,-102 131.5,-108 125.5,-108"/>
<text text-anchor="middle" x="110.5" y="-87.5" font-family="sans" font-size="10.00">finish</text>
</g>
<!-- 1&#45;&gt;0 -->
<g id="edge1" class="edge">
<title>1&#45;&gt;0</title>
<path fill="none" stroke="grey" stroke-width="2" d="M119.4,-71.7C123.5,-63.73 128.45,-54.1 132.99,-45.26"/>
<polygon fill="grey" stroke="grey" stroke-width="2" points="136.24,-46.6 137.7,-36.1 130.02,-43.4 136.24,-46.6"/>
</g>
<!-- 2 -->
<g id="node3" class="node">
<title>2</title>
<path fill="none" stroke="#9fd856" stroke-width="2" stroke-dasharray="5,2" d="M199.5,-108C199.5,-108 169.5,-108 169.5,-108 163.5,-108 157.5,-102 157.5,-96 157.5,-96 157.5,-84 157.5,-84 157.5,-78 163.5,-72 169.5,-72 169.5,-72 199.5,-72 199.5,-72 205.5,-72 211.5,-78 211.5,-84 211.5,-84 211.5,-96 211.5,-96 211.5,-102 205.5,-108 199.5,-108"/>
<text text-anchor="middle" x="184.5" y="-87.5" font-family="sans" font-size="10.00">finish</text>
</g>
<!-- 2&#45;&gt;0 -->
<g id="edge2" class="edge">
<title>2&#45;&gt;0</title>
<path fill="none" stroke="grey" stroke-width="2" d="M175.11,-71.7C170.74,-63.64 165.44,-53.89 160.6,-44.98"/>
<polygon fill="grey" stroke="grey" stroke-width="2" points="163.63,-43.22 155.79,-36.1 157.48,-46.56 163.63,-43.22"/>
</g>
<!-- 3 -->
<g id="node4" class="node">
<title>3</title>
<path fill="none" stroke="#d87d56" stroke-width="2" stroke-dasharray="5,2" d="M126,-180C126,-180 87,-180 87,-180 81,-180 75,-174 75,-168 75,-168 75,-156 75,-156 75,-150 81,-144 87,-144 87,-144 126,-144 126,-144 132,-144 138,-150 138,-156 138,-156 138,-168 138,-168 138,-174 132,-180 126,-180"/>
<text text-anchor="middle" x="106.5" y="-159.5" font-family="sans" font-size="10.00">summary</text>
</g>
<!-- 3&#45;&gt;1 -->
<g id="edge3" class="edge">
<title>3&#45;&gt;1</title>
<path fill="none" stroke="grey" stroke-width="2" d="M107.49,-143.7C107.93,-135.98 108.46,-126.71 108.95,-118.11"/>
<polygon fill="grey" stroke="grey" stroke-width="2" points="112.45,-118.29 109.52,-108.1 105.46,-117.89 112.45,-118.29"/>
</g>
<!-- 4 -->
<g id="node5" class="node">
<title>4</title>
<path fill="none" stroke="#d87d56" stroke-width="2" stroke-dasharray="5,2" d="M224,-180C224,-180 185,-180 185,-180 179,-180 173,-174 173,-168 173,-168 173,-156 173,-156 173,-150 179,-144 185,-144 185,-144 224,-144 224,-144 230,-144 236,-150 236,-156 236,-156 236,-168 236,-168 236,-174 230,-180 224,-180"/>
<text text-anchor="middle" x="204.5" y="-159.5" font-family="sans" font-size="10.00">summary</text>
</g>
<!-- 4&#45;&gt;2 -->
<g id="edge4" class="edge">
<title>4&#45;&gt;2</title>
<path fill="none" stroke="grey" stroke-width="2" d="M199.56,-143.7C197.33,-135.9 194.65,-126.51 192.17,-117.83"/>
<polygon fill="grey" stroke="grey" stroke-width="2" points="195.5,-116.76 189.39,-108.1 188.77,-118.68 195.5,-116.76"/>
</g>
<!-- 5 -->
<g id="node6" class="node">
<title>5</title>
<path fill="none" stroke="#c6d856" stroke-width="2" stroke-dasharray="5,2" d="M126,-252C126,-252 19,-252 19,-252 13,-252 7,-246 7,-240 7,-240 7,-228 7,-228 7,-222 13,-216 19,-216 19,-216 126,-216 126,-216 132,-216 138,-222 138,-228 138,-228 138,-240 138,-240 138,-246 132,-252 126,-252"/>
<text text-anchor="middle" x="72.5" y="-231.5" font-family="sans" font-size="10.00">merge_alignment_filter</text>
</g>
<!-- 5&#45;&gt;3 -->
<g id="edge5" class="edge">
<title>5&#45;&gt;3</title>
<path fill="none" stroke="grey" stroke-width="2" d="M80.9,-215.7C84.77,-207.73 89.45,-198.1 93.74,-189.26"/>
<polygon fill="grey" stroke="grey" stroke-width="2" points="96.97,-190.63 98.19,-180.1 90.67,-187.57 96.97,-190.63"/>
</g>
<!-- 6 -->
<g id="node7" class="node">
<title>6</title>
<path fill="none" stroke="#c6d856" stroke-width="2" stroke-dasharray="5,2" d="M278,-252C278,-252 171,-252 171,-252 165,-252 159,-246 159,-240 159,-240 159,-228 159,-228 159,-222 165,-216 171,-216 171,-216 278,-216 278,-216 284,-216 290,-222 290,-228 290,-228 290,-240 290,-240 290,-246 284,-252 278,-252"/>
<text text-anchor="middle" x="224.5" y="-231.5" font-family="sans" font-size="10.00">merge_alignment_filter</text>
</g>
<!-- 6&#45;&gt;4 -->
<g id="edge6" class="edge">
<title>6&#45;&gt;4</title>
<path fill="none" stroke="grey" stroke-width="2" d="M219.56,-215.7C217.33,-207.9 214.65,-198.51 212.17,-189.83"/>
<polygon fill="grey" stroke="grey" stroke-width="2" points="215.5,-188.76 209.39,-180.1 208.77,-190.68 215.5,-188.76"/>
</g>
<!-- 7 -->
<g id="node8" class="node">
<title>7</title>
<path fill="none" stroke="#56a2d8" stroke-width="2" stroke-dasharray="5,2" d="M123,-329C123,-329 12,-329 12,-329 6,-329 0,-323 0,-317 0,-317 0,-300 0,-300 0,-294 6,-288 12,-288 12,-288 123,-288 123,-288 129,-288 135,-294 135,-300 135,-300 135,-317 135,-317 135,-323 129,-329 123,-329"/>
<text text-anchor="middle" x="67.5" y="-317" font-family="sans" font-size="10.00">alignment_filter</text>
<text text-anchor="middle" x="67.5" y="-306" font-family="sans" font-size="10.00">region: chr4:507&#45;110000</text>
<text text-anchor="middle" x="67.5" y="-295" font-family="sans" font-size="10.00">sample: chr4</text>
</g>
<!-- 7&#45;&gt;5 -->
<g id="edge7" class="edge">
<title>7&#45;&gt;5</title>
<path fill="none" stroke="grey" stroke-width="2" d="M68.87,-287.69C69.4,-279.91 70.03,-270.84 70.61,-262.45"/>
<polygon fill="grey" stroke="grey" stroke-width="2" points="74.11,-262.54 71.31,-252.32 67.13,-262.05 74.11,-262.54"/>
</g>
<!-- 8 -->
<g id="node9" class="node">
<title>8</title>
<path fill="none" stroke="#56a2d8" stroke-width="2" stroke-dasharray="5,2" d="M289.5,-329C289.5,-329 165.5,-329 165.5,-329 159.5,-329 153.5,-323 153.5,-317 153.5,-317 153.5,-300 153.5,-300 153.5,-294 159.5,-288 165.5,-288 165.5,-288 289.5,-288 289.5,-288 295.5,-288 301.5,-294 301.5,-300 301.5,-300 301.5,-317 301.5,-317 301.5,-323 295.5,-329 289.5,-329"/>
<text text-anchor="middle" x="227.5" y="-317" font-family="sans" font-size="10.00">alignment_filter</text>
<text text-anchor="middle" x="227.5" y="-306" font-family="sans" font-size="10.00">region: chrX:10528&#45;181991</text>
<text text-anchor="middle" x="227.5" y="-295" font-family="sans" font-size="10.00">sample: chrX</text>
</g>
<!-- 8&#45;&gt;6 -->
<g id="edge8" class="edge">
<title>8&#45;&gt;6</title>
<path fill="none" stroke="grey" stroke-width="2" d="M226.68,-287.69C226.36,-279.91 225.98,-270.84 225.64,-262.45"/>
<polygon fill="grey" stroke="grey" stroke-width="2" points="229.13,-262.17 225.22,-252.32 222.13,-262.46 229.13,-262.17"/>
</g>
<!-- 9 -->
<g id="node10" class="node">
<title>9</title>
<path fill="none" stroke="#567bd8" stroke-width="2" stroke-dasharray="5,2" d="M124,-401C124,-401 27,-401 27,-401 21,-401 15,-395 15,-389 15,-389 15,-377 15,-377 15,-371 21,-365 27,-365 27,-365 124,-365 124,-365 130,-365 136,-371 136,-377 136,-377 136,-389 136,-389 136,-395 130,-401 124,-401"/>
<text text-anchor="middle" x="75.5" y="-380.5" font-family="sans" font-size="10.00">generate_bt2_indices</text>
</g>
<!-- 9&#45;&gt;7 -->
<g id="edge9" class="edge">
<title>9&#45;&gt;7</title>
<path fill="none" stroke="grey" stroke-width="2" d="M73.6,-364.82C72.76,-357.2 71.75,-348 70.79,-339.32"/>
<polygon fill="grey" stroke="grey" stroke-width="2" points="74.24,-338.68 69.66,-329.12 67.28,-339.44 74.24,-338.68"/>
</g>
<!-- 9&#45;&gt;8 -->
<g id="edge11" class="edge">
<title>9&#45;&gt;8</title>
<path fill="none" stroke="grey" stroke-width="2" d="M111.52,-364.82C131.1,-355.48 155.62,-343.78 177.07,-333.55"/>
<polygon fill="grey" stroke="grey" stroke-width="2" points="178.85,-336.58 186.37,-329.12 175.83,-330.27 178.85,-336.58"/>
</g>
<!-- 10 -->
<g id="node11" class="node">
<title>10</title>
<path fill="none" stroke="#78d856" stroke-width="2" stroke-dasharray="5,2" d="M277,-401C277,-401 170,-401 170,-401 164,-401 158,-395 158,-389 158,-389 158,-377 158,-377 158,-371 164,-365 170,-365 170,-365 277,-365 277,-365 283,-365 289,-371 289,-377 289,-377 289,-389 289,-389 289,-395 283,-401 277,-401"/>
<text text-anchor="middle" x="223.5" y="-380.5" font-family="sans" font-size="10.00">generate_genome_bins</text>
</g>
<!-- 10&#45;&gt;7 -->
<g id="edge10" class="edge">
<title>10&#45;&gt;7</title>
<path fill="none" stroke="grey" stroke-width="2" d="M186.53,-364.82C166.35,-355.44 141.04,-343.68 118.96,-333.42"/>
<polygon fill="grey" stroke="grey" stroke-width="2" points="120.26,-330.16 109.72,-329.12 117.31,-336.51 120.26,-330.16"/>
</g>
<!-- 10&#45;&gt;8 -->
<g id="edge12" class="edge">
<title>10&#45;&gt;8</title>
<path fill="none" stroke="grey" stroke-width="2" d="M224.45,-364.82C224.87,-357.2 225.38,-348 225.85,-339.32"/>
<polygon fill="grey" stroke="grey" stroke-width="2" points="229.36,-339.3 226.42,-329.12 222.37,-338.91 229.36,-339.3"/>
</g>
</g>
</svg>
